<?xml version="1.0" standalone="no"?>
<!DOCTYPE svg PUBLIC "-//W3C//DTD SVG 20010904//EN"
 "http://www.w3.org/TR/2001/REC-SVG-20010904/DTD/svg10.dtd">
<svg version="1.0" xmlns="http://www.w3.org/2000/svg"
 width="1280.000000pt" height="1280.000000pt" viewBox="0 0 1280.000000 1280.000000"
 preserveAspectRatio="xMidYMid meet">
<metadata>
Created by potrace 1.15, written by Peter Selinger 2001-2017
</metadata>
<g transform="translate(0.000000,1280.000000) scale(0.100000,-0.100000)"
fill="#000000" stroke="none">
<path d="M4434 12720 c-261 -225 -312 -364 -248 -685 l17 -85 -27 -25 c-19
-18 -25 -31 -21 -47 5 -18 -8 -42 -57 -104 -35 -44 -70 -91 -79 -104 -15 -23
-16 -21 -23 62 -22 275 -134 496 -367 723 l-123 120 -29 -65 c-136 -300 -187
-469 -194 -645 -11 -266 65 -424 390 -811 23 -27 26 -37 18 -53 -18 -33 -12
-61 18 -91 l29 -29 5 -213 c5 -224 17 -312 64 -478 138 -494 485 -954 990
-1313 56 -39 98 -73 94 -75 -5 -1 -37 8 -72 22 -35 13 -107 40 -159 60 -123
47 -310 138 -446 216 -126 72 -344 218 -344 230 0 4 7 24 15 43 20 48 20 192
-1 271 -23 90 -90 212 -149 270 -28 28 -90 73 -138 99 -214 118 -405 276 -472
391 -75 128 -100 280 -72 444 7 45 10 82 7 82 -13 0 -87 -86 -114 -133 -102
-174 -108 -378 -19 -636 3 -9 -13 11 -37 44 -23 33 -69 88 -102 122 -43 46
-71 88 -104 159 -49 104 -84 225 -83 283 l0 36 16 -31 c8 -17 28 -38 43 -47
98 -58 208 51 155 153 -19 37 -48 52 -96 52 -155 -2 -176 -180 -53 -449 19
-42 34 -77 34 -79 0 -3 -19 8 -42 22 -87 55 -233 104 -357 120 l-54 7 7 -54
c16 -121 63 -264 117 -351 16 -27 27 -48 25 -48 -2 0 -37 15 -79 34 -217 99
-386 105 -432 16 -17 -33 -20 -102 -5 -131 13 -24 61 -49 95 -49 61 0 115 57
115 121 0 32 -30 75 -64 92 l-31 16 36 0 c58 1 184 -36 284 -83 68 -32 113
-62 162 -108 37 -35 89 -78 116 -96 26 -18 47 -35 47 -36 0 -2 -33 7 -74 20
-206 65 -408 50 -561 -41 -56 -34 -135 -101 -135 -115 0 -3 39 0 88 8 100 15
234 10 305 -12 185 -58 361 -237 524 -533 26 -48 71 -110 99 -138 58 -59 180
-126 270 -149 79 -21 223 -21 271 -1 19 8 39 15 43 15 12 0 158 -218 230 -344
78 -136 169 -323 216 -446 20 -52 47 -124 60 -159 14 -35 23 -68 22 -72 -2 -5
-25 24 -53 64 -300 436 -712 783 -1130 950 -243 97 -397 127 -683 134 l-213 5
-29 29 c-30 30 -58 36 -91 18 -16 -8 -27 -5 -57 21 -259 218 -402 310 -557
362 -61 20 -89 23 -220 22 -131 0 -163 -4 -249 -28 -93 -25 -279 -96 -426
-163 l-65 -29 120 -123 c227 -233 448 -345 723 -367 83 -7 85 -8 62 -23 -13
-9 -60 -44 -104 -79 -62 -49 -86 -62 -104 -57 -16 4 -29 -2 -47 -21 l-25 -27
-85 17 c-322 64 -465 12 -690 -254 l-75 -88 39 -15 c89 -36 168 -51 276 -51
121 -1 177 11 268 56 31 15 57 27 57 24 0 -2 -11 -28 -24 -57 -14 -30 -32 -92
-42 -138 -39 -197 26 -360 174 -433 67 -33 207 -33 270 0 71 38 100 111 71
176 -24 52 -98 55 -133 4 -20 -28 -20 -39 -1 -64 15 -18 15 -18 9 8 -12 55 68
92 100 46 52 -73 -42 -169 -168 -172 -116 -3 -219 58 -270 158 -42 80 -48 206
-17 320 12 43 28 90 35 105 13 23 14 18 9 -56 -5 -75 -3 -87 21 -136 42 -86
135 -135 227 -121 74 12 118 79 85 129 -29 44 -96 24 -96 -28 0 -21 1 -21 13
3 8 16 23 26 39 28 22 3 29 -2 34 -22 16 -64 -65 -109 -153 -87 -61 16 -108
51 -134 103 -32 63 -24 181 19 263 43 84 166 225 196 225 26 0 52 25 58 55 3
21 100 106 190 168 42 28 83 45 169 67 113 28 212 65 361 134 l77 35 24 -20
c37 -28 74 -24 108 13 l30 31 187 -6 c323 -11 534 -61 800 -188 213 -102 363
-201 556 -368 184 -160 434 -452 550 -645 53 -87 119 -407 130 -631 l6 -110
-20 91 c-108 493 -396 849 -797 984 -105 35 -255 60 -361 60 -67 0 -76 3 -130
39 -97 66 -168 86 -302 86 l-115 0 -111 -51 c-397 -184 -632 -178 -836 24 -32
30 -60 53 -64 50 -3 -4 -1 -30 5 -58 30 -141 137 -269 283 -339 46 -22 103
-45 128 -52 l45 -13 -110 -8 c-60 -5 -138 -6 -172 -3 -82 7 -227 50 -283 83
l-45 27 44 6 c87 12 121 100 62 160 -41 41 -83 39 -127 -5 -29 -29 -34 -41
-34 -79 0 -38 5 -51 31 -77 55 -55 162 -99 293 -121 l75 -13 -82 -40 c-106
-53 -168 -99 -252 -187 -60 -64 -165 -210 -165 -229 0 -12 109 -39 207 -50
113 -14 252 0 357 36 38 13 72 22 74 20 2 -2 -17 -32 -42 -65 -48 -66 -90
-145 -106 -200 -14 -50 5 -25 28 36 26 68 105 186 163 243 25 25 78 71 117
103 l72 57 -31 -62 c-70 -138 -97 -270 -79 -387 10 -66 72 -211 91 -211 5 0 9
28 9 63 1 289 168 477 565 632 154 61 208 97 277 186 72 92 111 189 116 286
l5 83 53 0 c260 0 546 -117 733 -300 199 -194 335 -470 398 -803 27 -144 24
-420 -5 -564 l-23 -113 23 -112 c29 -145 32 -421 5 -565 -90 -479 -331 -834
-679 -998 -130 -61 -319 -105 -452 -105 l-53 0 -5 83 c-3 67 -11 96 -38 156
-40 87 -104 172 -163 219 -54 43 -71 52 -192 97 -195 72 -353 171 -440 275
-78 94 -124 226 -125 358 0 34 -4 62 -9 62 -19 0 -81 -145 -91 -211 -18 -117
9 -249 79 -387 l31 -62 -72 57 c-39 32 -92 78 -117 103 -58 57 -137 175 -163
243 -27 73 -43 84 -18 13 21 -62 63 -136 113 -199 16 -21 28 -40 25 -42 -2 -2
-36 6 -74 19 -105 36 -244 50 -357 36 -98 -11 -207 -38 -207 -50 0 -18 103
-162 159 -222 82 -88 155 -143 256 -193 l84 -41 -75 -13 c-131 -22 -238 -66
-293 -121 -26 -26 -31 -39 -31 -77 0 -38 5 -50 34 -79 44 -44 86 -46 127 -5
59 60 25 148 -62 161 l-44 6 35 22 c44 28 171 69 258 83 45 7 108 8 192 2 124
-9 125 -9 80 -22 -25 -7 -82 -30 -128 -52 -104 -50 -205 -146 -245 -231 -29
-60 -53 -155 -43 -166 4 -3 32 20 64 50 204 202 439 208 836 24 l111 -51 115
0 c134 0 205 20 302 86 55 37 62 39 135 39 167 0 376 52 520 130 316 170 542
496 633 914 l20 91 -6 -110 c-11 -224 -77 -544 -130 -631 -116 -193 -366 -485
-550 -645 -193 -167 -343 -266 -556 -368 -266 -128 -475 -176 -805 -188 l-182
-6 -30 31 c-34 37 -71 41 -108 13 l-24 -20 -77 35 c-149 69 -248 106 -361 134
-86 22 -127 39 -169 67 -90 62 -187 147 -190 168 -6 30 -32 55 -58 55 -30 0
-153 141 -196 225 -43 82 -51 200 -19 263 26 52 73 87 134 103 88 22 169 -23
153 -87 -5 -20 -12 -25 -34 -22 -16 2 -31 12 -39 28 -12 24 -13 24 -13 3 0
-52 67 -72 96 -28 33 50 -11 117 -85 129 -92 14 -185 -35 -227 -121 -24 -49
-26 -61 -21 -136 5 -74 4 -79 -9 -56 -7 15 -23 62 -35 105 -31 114 -25 240 17
320 51 100 154 161 270 158 126 -3 220 -99 168 -172 -32 -46 -112 -9 -100 46
6 26 6 26 -9 8 -19 -25 -19 -36 1 -64 35 -51 109 -48 133 4 29 65 0 138 -71
176 -63 33 -203 33 -270 0 -148 -73 -213 -236 -174 -433 10 -46 28 -108 42
-138 13 -29 24 -55 24 -57 0 -3 -26 9 -57 24 -91 45 -147 57 -268 56 -108 0
-187 -15 -276 -51 l-39 -15 75 -88 c225 -265 369 -318 690 -254 l85 17 25 -27
c18 -19 31 -25 47 -21 18 5 42 -8 104 -57 44 -35 91 -70 104 -79 23 -15 21
-16 -62 -23 -275 -22 -496 -134 -723 -367 l-120 -123 74 -33 c136 -62 345
-141 436 -164 74 -20 115 -24 235 -24 125 0 155 3 215 23 155 52 298 144 557
362 30 26 41 29 57 21 33 -18 61 -12 91 18 l29 29 213 5 c286 7 440 37 683
134 417 167 830 514 1130 950 28 40 51 69 53 64 1 -4 -8 -37 -22 -72 -13 -35
-40 -107 -60 -159 -47 -123 -138 -310 -216 -446 -72 -126 -218 -344 -230 -344
-4 0 -24 7 -43 15 -48 20 -192 20 -271 -1 -90 -23 -212 -90 -270 -149 -28 -28
-73 -90 -99 -138 -163 -295 -340 -475 -524 -533 -71 -22 -205 -27 -306 -12
-48 8 -87 11 -87 7 0 -12 86 -86 133 -113 156 -92 359 -107 562 -42 41 13 75
22 75 20 0 -1 -21 -18 -47 -36 -27 -18 -79 -61 -116 -96 -49 -46 -94 -76 -162
-108 -100 -47 -226 -84 -284 -83 l-36 0 31 16 c34 17 64 60 64 92 0 64 -54
121 -115 121 -34 0 -82 -25 -95 -49 -15 -29 -12 -98 5 -131 46 -89 215 -83
432 16 42 19 77 34 79 34 3 0 -8 -19 -22 -42 -55 -86 -104 -233 -120 -355 -6
-50 -5 -53 15 -53 82 0 297 67 382 119 27 17 49 29 49 27 0 -2 -15 -37 -34
-79 -52 -113 -77 -204 -78 -282 -2 -113 40 -165 132 -165 52 0 76 13 95 50 53
102 -57 211 -155 153 -15 -9 -35 -30 -43 -47 l-16 -31 0 36 c-2 116 95 345
187 442 33 34 79 89 102 122 24 33 40 53 37 44 -89 -258 -83 -462 19 -636 27
-47 101 -133 114 -133 3 0 0 37 -7 83 -28 163 -3 315 72 443 67 115 257 273
472 391 49 27 110 71 139 100 59 61 125 179 148 269 21 79 21 223 1 271 -8 19
-15 39 -15 43 0 12 218 158 344 230 136 78 323 169 446 216 52 20 124 47 159
60 35 14 67 23 72 22 4 -2 -38 -36 -94 -75 -505 -359 -852 -819 -990 -1313
-47 -166 -59 -254 -64 -478 l-5 -213 -29 -29 c-30 -30 -36 -58 -18 -91 8 -16
5 -26 -18 -53 -244 -291 -345 -455 -380 -619 -22 -105 -13 -282 21 -411 25
-93 97 -282 163 -426 l30 -65 130 130 c233 232 337 439 359 713 7 83 8 85 23
62 9 -13 44 -60 79 -104 49 -62 62 -86 57 -104 -4 -16 2 -29 21 -47 l27 -25
-17 -85 c-64 -321 -11 -465 254 -690 l88 -75 15 39 c36 89 51 168 51 276 1
121 -11 177 -56 267 l-28 58 52 -21 c101 -41 161 -53 258 -52 141 0 226 40
296 138 105 148 47 395 -93 395 -95 0 -135 -93 -61 -144 28 -20 39 -20 64 -1
18 15 18 15 -8 9 -32 -7 -68 24 -68 60 0 45 59 67 109 41 69 -35 103 -144 77
-245 -39 -152 -150 -230 -326 -230 -75 0 -195 26 -249 55 -23 12 -18 13 56 8
75 -5 87 -3 136 21 86 42 135 135 121 227 -12 74 -79 118 -129 85 -43 -28 -26
-96 23 -96 l27 0 -25 13 c-16 8 -26 23 -28 39 -3 22 2 29 22 34 64 16 109 -65
87 -153 -27 -107 -103 -158 -225 -151 -54 3 -87 11 -136 35 -83 40 -230 165
-230 196 0 32 -13 47 -46 56 -18 4 -50 32 -84 73 -106 126 -129 167 -160 289
-31 122 -50 174 -124 338 l-47 104 20 21 c30 32 27 73 -9 106 -30 28 -30 28
-30 142 0 332 59 602 190 876 145 301 331 546 602 791 142 129 356 288 443
331 96 47 511 122 660 119 33 -1 26 -4 -41 -19 -426 -96 -745 -316 -913 -630
-79 -148 -131 -357 -131 -528 0 -67 -3 -76 -39 -130 -66 -97 -86 -168 -86
-302 l0 -115 51 -110 c184 -397 178 -633 -24 -837 -30 -32 -53 -60 -50 -64 4
-3 30 -1 58 5 141 30 269 137 339 283 22 46 45 103 52 128 13 45 13 44 22 -80
5 -82 5 -148 -2 -192 -14 -87 -55 -214 -83 -258 l-22 -35 -6 44 c-13 87 -101
121 -161 62 -41 -41 -39 -83 5 -127 29 -29 41 -34 80 -34 39 0 50 5 80 36 45
46 93 163 115 277 l17 91 18 -45 c56 -141 202 -312 350 -408 43 -28 82 -51 86
-51 12 0 39 109 51 210 13 113 0 247 -37 354 -13 38 -22 72 -20 74 2 2 32 -17
65 -42 66 -48 145 -90 200 -106 50 -14 25 5 -36 28 -68 26 -186 105 -243 163
-25 25 -71 78 -103 117 l-57 72 62 -31 c138 -70 270 -97 387 -79 66 10 211 72
211 91 0 5 -27 9 -59 9 -83 0 -191 24 -259 59 -159 81 -267 226 -377 506 -61
154 -97 208 -186 277 -92 72 -189 111 -286 116 l-83 5 0 53 c0 260 117 546
300 733 194 199 471 336 803 398 135 25 421 24 547 -2 52 -10 111 -19 130 -19
19 0 78 9 130 19 126 26 412 27 547 2 478 -89 834 -331 998 -679 61 -130 105
-319 105 -452 l0 -53 -83 -5 c-67 -3 -96 -11 -156 -38 -87 -40 -172 -104 -219
-163 -43 -54 -52 -71 -97 -192 -72 -195 -171 -353 -275 -440 -93 -77 -230
-125 -361 -125 -32 0 -59 -4 -59 -9 0 -19 145 -81 211 -91 117 -18 249 9 387
79 l62 31 -57 -72 c-115 -143 -224 -231 -343 -278 -64 -25 -89 -44 -39 -30 55
16 134 58 200 106 33 25 63 44 65 42 2 -2 -7 -36 -20 -74 -37 -107 -50 -241
-37 -354 12 -101 39 -210 51 -210 18 0 162 103 222 159 102 95 194 228 222
321 6 20 11 6 26 -66 23 -117 72 -232 116 -278 30 -31 41 -36 80 -36 39 0 51
5 80 34 44 44 46 86 5 127 -60 59 -148 25 -161 -62 l-6 -44 -22 35 c-28 44
-69 171 -83 258 -7 45 -8 108 -2 192 9 124 9 125 22 80 59 -210 214 -373 391
-411 28 -6 54 -8 58 -5 3 4 -20 32 -50 64 -189 191 -206 422 -56 762 88 200
91 212 85 325 -5 116 -28 189 -88 277 -36 54 -39 63 -39 130 0 106 -25 256
-60 361 -136 403 -494 692 -990 798 -75 15 -80 18 -40 18 156 2 568 -72 665
-119 87 -43 301 -202 443 -331 271 -245 457 -490 601 -791 132 -273 191 -545
191 -876 0 -114 0 -114 -30 -142 -36 -33 -39 -74 -10 -105 l21 -22 -37 -79
c-69 -151 -106 -250 -134 -363 -31 -122 -54 -163 -160 -289 -34 -41 -66 -69
-84 -73 -33 -9 -46 -24 -46 -56 0 -31 -147 -156 -230 -196 -125 -60 -262 -46
-323 35 -55 72 -58 182 -5 221 38 28 80 17 76 -21 -2 -16 -12 -31 -28 -39
l-25 -13 27 0 c49 0 66 68 23 96 -50 33 -117 -11 -129 -85 -14 -92 35 -185
121 -227 49 -24 61 -26 136 -21 74 5 79 4 56 -8 -54 -29 -174 -55 -249 -55
-176 0 -287 78 -326 230 -26 101 8 210 77 245 50 26 109 4 109 -41 0 -36 -36
-67 -68 -60 -26 6 -26 6 -8 -9 25 -19 36 -19 64 1 74 51 34 144 -61 144 -140
0 -198 -247 -93 -395 70 -98 155 -138 296 -138 97 -1 157 11 258 52 l52 21
-28 -58 c-45 -90 -57 -146 -56 -267 0 -108 15 -187 51 -276 l15 -39 88 75
c265 225 318 369 254 690 l-17 85 27 25 c19 18 25 31 21 47 -5 18 8 42 57 104
35 44 70 91 79 104 15 23 16 21 23 -62 14 -178 76 -354 175 -503 31 -45 110
-136 184 -210 l130 -130 30 65 c133 292 187 469 194 645 11 266 -65 424 -390
811 -23 27 -26 37 -18 53 18 33 12 61 -18 91 l-29 29 -5 213 c-5 224 -17 312
-64 478 -138 494 -486 954 -990 1313 -56 39 -98 73 -94 75 5 1 37 -8 72 -22
35 -13 107 -40 159 -60 123 -47 310 -138 446 -216 126 -72 344 -218 344 -230
0 -4 -7 -24 -15 -43 -20 -48 -20 -192 1 -271 23 -90 90 -212 149 -270 28 -28
90 -73 138 -99 214 -118 405 -276 472 -391 75 -128 98 -271 73 -438 -8 -49
-11 -88 -7 -88 12 0 86 86 113 133 102 174 108 378 19 636 -3 9 13 -11 37 -44
23 -33 69 -88 102 -122 43 -46 71 -88 104 -159 49 -104 84 -225 83 -283 l0
-36 -16 31 c-8 17 -28 38 -43 47 -98 58 -208 -51 -155 -153 19 -37 43 -50 95
-50 151 0 177 168 64 424 -20 44 -38 87 -41 94 -3 8 17 -1 45 -18 64 -39 186
-84 285 -104 121 -25 121 -26 113 37 -15 117 -68 273 -122 358 -13 22 -23 39
-20 39 2 0 37 -15 79 -34 113 -52 204 -77 282 -78 113 -2 165 40 165 132 0 52
-13 76 -50 95 -102 53 -211 -57 -153 -155 9 -15 30 -35 47 -43 l31 -16 -36 0
c-58 -1 -184 36 -284 83 -68 32 -113 62 -162 108 -37 35 -89 78 -116 96 -26
18 -47 35 -47 36 0 2 34 -7 75 -20 203 -65 406 -50 562 42 47 27 133 101 133
113 0 4 -39 1 -87 -7 -101 -15 -235 -10 -306 12 -184 58 -361 238 -524 533
-26 48 -71 110 -99 138 -58 59 -180 126 -270 149 -79 21 -223 21 -271 1 -19
-8 -39 -15 -43 -15 -12 0 -158 218 -230 344 -78 136 -169 323 -216 446 -20 52
-47 124 -60 159 -14 35 -23 68 -22 72 2 5 25 -24 53 -64 300 -437 712 -783
1130 -950 243 -97 397 -127 683 -134 l213 -5 29 -29 c30 -30 58 -36 91 -18 16
8 26 5 53 -18 267 -224 400 -311 562 -365 60 -20 89 -23 214 -23 120 0 161 4
235 24 91 23 300 102 436 164 l74 33 -120 123 c-227 233 -448 345 -723 367
-83 7 -85 8 -62 23 13 9 60 44 104 79 62 49 86 62 104 57 16 -4 29 2 47 21
l25 27 85 -17 c321 -64 465 -11 690 254 l75 88 -39 15 c-89 36 -168 51 -276
51 -121 1 -177 -11 -267 -56 -32 -15 -58 -27 -58 -24 0 2 11 28 24 57 14 30
33 94 42 143 38 194 -28 356 -174 428 -67 33 -208 33 -270 0 -71 -38 -100
-111 -71 -176 24 -52 98 -55 133 -4 20 28 20 39 1 64 -15 18 -15 18 -9 -8 12
-55 -68 -92 -100 -46 -52 73 42 169 168 172 116 3 219 -58 270 -158 42 -80 48
-206 17 -320 -12 -43 -28 -90 -35 -105 -13 -23 -14 -18 -9 56 5 75 3 87 -21
136 -42 86 -135 135 -227 121 -74 -12 -118 -79 -85 -129 29 -44 96 -24 96 28
0 21 -1 21 -13 -3 -8 -16 -23 -26 -39 -28 -22 -3 -29 2 -34 22 -16 64 65 109
153 87 61 -16 108 -51 134 -103 32 -62 24 -171 -18 -258 -41 -85 -165 -230
-197 -230 -26 0 -52 -25 -58 -55 -3 -21 -100 -106 -190 -168 -42 -28 -83 -45
-169 -67 -113 -28 -212 -65 -363 -134 l-79 -37 -22 21 c-32 30 -72 26 -106
-12 l-30 -31 -182 6 c-330 12 -540 61 -805 188 -213 101 -362 200 -555 367
-182 156 -435 453 -551 646 -53 87 -119 407 -130 631 l-6 110 20 -91 c107
-492 397 -849 795 -983 109 -36 252 -61 358 -61 73 0 80 -2 135 -39 97 -66
168 -86 302 -86 l115 0 111 51 c397 184 632 178 836 -24 32 -30 60 -53 64 -50
3 4 1 30 -5 58 -30 141 -137 269 -283 339 -46 22 -103 45 -128 52 -45 13 -44
13 80 22 84 6 147 5 192 -2 87 -14 214 -55 258 -83 l35 -22 -44 -6 c-87 -13
-121 -101 -62 -161 41 -41 83 -39 127 5 29 29 34 41 34 79 0 38 -5 51 -31 77
-55 55 -162 99 -293 121 l-75 13 84 41 c101 50 174 105 256 193 56 60 159 204
159 222 0 12 -109 39 -207 50 -113 14 -252 0 -357 -36 -38 -13 -72 -22 -74
-20 -2 2 17 32 42 65 48 66 90 145 106 200 14 50 -5 25 -30 -39 -47 -119 -135
-228 -278 -343 l-72 -57 31 62 c70 138 97 270 79 387 -10 66 -72 211 -91 211
-5 0 -9 -27 -9 -59 0 -131 -48 -268 -125 -361 -87 -104 -245 -203 -440 -275
-121 -45 -138 -54 -192 -97 -59 -47 -123 -132 -163 -219 -27 -60 -35 -89 -38
-156 l-5 -83 -53 0 c-260 0 -546 117 -733 300 -199 194 -335 470 -398 803 -27
144 -24 420 5 565 l23 112 -23 113 c-29 144 -32 420 -5 564 90 480 330 834
678 997 131 62 320 106 453 106 l53 0 5 -83 c5 -97 44 -194 116 -286 69 -89
123 -125 277 -186 397 -155 564 -343 565 -632 0 -35 4 -63 9 -63 19 0 81 145
91 211 18 117 -9 249 -79 387 l-31 62 72 -57 c39 -32 92 -78 117 -103 58 -57
137 -175 163 -243 23 -61 42 -86 28 -36 -16 55 -58 134 -106 200 -25 33 -44
63 -42 65 2 2 36 -7 74 -20 105 -36 244 -50 357 -36 98 11 207 38 207 50 0 19
-105 165 -165 229 -84 88 -146 134 -252 187 l-82 40 75 13 c131 22 238 66 293
121 26 26 31 39 31 77 0 38 -5 50 -34 79 -44 44 -86 46 -127 5 -59 -60 -25
-148 62 -160 l44 -6 -45 -27 c-56 -33 -201 -76 -283 -83 -34 -3 -111 -2 -172
3 l-110 8 45 13 c210 59 373 214 411 391 6 28 8 54 5 58 -4 3 -32 -20 -64 -50
-204 -202 -439 -208 -836 -24 l-111 51 -115 0 c-134 0 -205 -20 -302 -86 -54
-36 -63 -39 -130 -39 -106 0 -256 -25 -361 -60 -401 -135 -689 -491 -797 -984
l-20 -91 6 110 c11 224 77 544 130 631 116 193 369 490 551 646 193 167 342
266 555 367 264 127 477 177 800 188 l187 6 30 -31 c34 -38 74 -42 106 -12
l22 21 79 -37 c151 -69 250 -106 363 -134 86 -22 127 -39 169 -67 90 -62 187
-147 190 -168 6 -30 32 -55 58 -55 32 0 156 -145 197 -230 42 -87 50 -196 18
-258 -26 -52 -73 -87 -134 -103 -88 -22 -169 23 -153 87 5 20 12 25 34 22 16
-2 31 -12 39 -28 12 -24 13 -24 13 -3 0 52 -67 72 -96 28 -33 -50 11 -117 85
-129 92 -14 185 35 227 121 24 49 26 61 21 136 -5 74 -4 79 9 56 7 -15 23 -62
35 -105 31 -114 25 -240 -17 -320 -51 -100 -154 -161 -270 -158 -126 3 -220
99 -168 172 32 46 112 9 100 -46 -6 -26 -6 -26 9 -8 19 25 19 36 -1 64 -35 51
-109 48 -133 -4 -29 -65 0 -138 71 -176 62 -33 203 -33 268 -1 148 73 214 235
176 429 -9 49 -28 113 -42 143 -13 29 -24 55 -24 57 0 3 26 -9 58 -24 90 -45
146 -57 267 -56 108 0 187 15 276 51 l39 15 -75 88 c-225 265 -369 318 -690
254 l-85 -17 -25 27 c-18 19 -31 25 -47 21 -18 -5 -42 8 -104 57 -44 35 -91
70 -104 79 -23 15 -21 16 62 23 274 22 481 126 713 359 l130 130 -65 30 c-141
64 -332 138 -426 163 -86 24 -118 28 -249 28 -131 1 -159 -2 -219 -22 -162
-54 -295 -141 -562 -365 -27 -23 -37 -26 -53 -18 -33 18 -61 12 -91 -18 l-29
-29 -213 -5 c-286 -7 -440 -37 -683 -134 -418 -167 -830 -513 -1130 -950 -28
-40 -51 -69 -53 -64 -1 4 8 37 22 72 13 35 40 107 60 159 47 123 138 310 216
446 72 126 218 344 230 344 4 0 24 -7 43 -15 48 -20 192 -20 271 1 90 23 212
90 270 149 28 28 73 90 99 138 163 296 339 475 524 533 71 22 205 27 306 12
48 -8 87 -11 87 -8 0 14 -79 81 -135 115 -153 91 -355 106 -561 41 -41 -13
-74 -22 -74 -20 0 1 21 18 47 36 27 18 79 61 116 96 49 46 94 76 162 108 100
47 226 84 284 83 l36 0 -31 -16 c-17 -8 -38 -28 -47 -43 -58 -98 51 -208 153
-155 37 19 50 43 50 95 0 156 -176 178 -447 54 -42 -19 -77 -34 -79 -34 -3 0
7 17 20 39 55 86 107 241 122 360 l7 54 -54 -7 c-124 -16 -270 -65 -358 -121
-24 -15 -41 -21 -38 -14 3 8 21 51 41 95 91 206 93 364 5 409 -36 19 -98 22
-127 6 -47 -25 -65 -98 -37 -151 41 -80 158 -77 198 4 l16 31 0 -36 c1 -58
-34 -179 -83 -283 -33 -71 -61 -113 -104 -159 -33 -34 -79 -89 -102 -122 -24
-33 -40 -53 -37 -44 89 258 83 462 -19 636 -27 47 -101 133 -113 133 -4 0 -1
-39 7 -87 25 -168 2 -311 -73 -439 -67 -115 -258 -273 -472 -391 -48 -26 -110
-71 -138 -99 -59 -58 -126 -180 -149 -270 -21 -79 -21 -223 -1 -271 8 -19 15
-39 15 -43 0 -12 -218 -158 -344 -230 -136 -78 -323 -169 -446 -216 -52 -20
-124 -47 -159 -60 -35 -14 -67 -23 -72 -22 -4 2 38 36 94 75 504 359 852 819
990 1313 47 166 59 254 64 478 l5 213 29 29 c30 30 36 58 18 91 -8 16 -5 26
18 53 244 291 345 455 380 619 22 105 13 282 -21 411 -25 92 -95 276 -163 426
l-29 65 -122 -119 c-235 -229 -346 -448 -368 -724 -7 -83 -8 -85 -23 -62 -9
13 -44 60 -79 104 -49 62 -62 86 -57 104 4 16 -2 29 -21 47 l-27 25 17 85 c64
321 11 465 -254 690 l-88 75 -15 -39 c-36 -89 -51 -168 -51 -276 -1 -121 11
-177 56 -267 l28 -58 -52 21 c-101 41 -161 53 -258 53 -119 -1 -187 -25 -253
-89 -71 -71 -92 -122 -92 -230 0 -74 4 -97 23 -133 38 -71 111 -100 176 -71
52 24 55 98 4 133 -28 20 -39 20 -64 1 -18 -15 -18 -15 8 -9 62 14 93 -77 35
-104 -24 -12 -35 -12 -65 0 -76 29 -115 141 -88 248 39 152 149 230 325 230
76 0 196 -26 250 -55 23 -12 18 -13 -56 -8 -75 5 -87 3 -136 -21 -86 -42 -135
-135 -121 -227 12 -74 79 -118 129 -85 43 28 26 96 -23 96 l-27 0 25 -13 c16
-8 26 -23 28 -39 3 -22 -2 -29 -22 -34 -64 -16 -109 65 -87 153 16 61 51 108
103 134 63 32 181 24 263 -19 82 -42 225 -166 225 -195 0 -32 13 -47 46 -56
18 -4 50 -32 84 -73 106 -126 129 -167 160 -289 33 -129 50 -176 121 -331 l50
-110 -20 -22 c-31 -33 -27 -73 11 -107 l31 -30 -6 -182 c-11 -329 -60 -538
-188 -805 -143 -300 -330 -546 -601 -791 -142 -129 -356 -288 -443 -331 -96
-47 -513 -122 -665 -119 -39 0 -32 3 46 20 409 85 747 318 911 626 81 152 133
358 133 532 0 62 4 79 24 105 68 90 106 209 106 331 -1 88 -8 112 -88 295
-150 340 -133 571 56 762 30 32 53 61 49 64 -4 4 -30 2 -58 -4 -142 -33 -268
-139 -338 -284 -22 -46 -45 -103 -52 -128 -13 -45 -13 -44 -22 80 -6 84 -5
147 2 192 14 87 55 214 83 258 l22 35 6 -44 c13 -87 101 -121 161 -62 41 41
39 83 -5 127 -29 29 -41 34 -79 34 -38 0 -51 -5 -77 -31 -55 -55 -99 -162
-121 -293 -7 -42 -15 -73 -17 -71 -3 3 -15 29 -27 58 -54 134 -191 289 -342
388 -42 27 -79 49 -83 49 -12 0 -39 -109 -51 -210 -13 -113 0 -247 37 -354 13
-38 21 -72 19 -74 -2 -3 -21 9 -42 25 -63 50 -137 92 -199 113 -72 25 -60 10
16 -20 119 -47 228 -135 343 -278 l57 -72 -62 31 c-138 70 -270 97 -387 79
-66 -10 -211 -72 -211 -91 0 -5 27 -9 59 -9 290 0 494 -181 636 -565 45 -121
54 -138 97 -192 47 -59 132 -123 219 -163 60 -27 89 -35 156 -38 l83 -5 0 -53
c0 -260 -117 -546 -300 -733 -194 -199 -471 -336 -803 -398 -145 -26 -421 -24
-565 5 l-112 23 -113 -23 c-143 -29 -419 -31 -564 -5 -478 89 -834 331 -998
679 -61 131 -105 319 -105 454 l0 54 63 0 c101 0 213 44 312 122 84 66 120
122 180 273 135 344 280 503 504 550 40 8 99 15 132 15 32 0 59 4 59 9 0 19
-145 81 -211 91 -117 18 -249 -9 -387 -79 l-62 -31 57 72 c32 39 78 92 103
117 57 58 175 137 243 163 61 23 86 42 36 28 -55 -16 -134 -58 -200 -106 -33
-25 -63 -44 -65 -42 -2 2 7 36 20 74 37 107 50 241 37 354 -12 101 -39 210
-51 210 -19 0 -165 -105 -229 -165 -88 -84 -134 -146 -187 -252 l-40 -82 -13
75 c-22 131 -66 238 -121 293 -26 26 -39 31 -77 31 -38 0 -50 -5 -79 -34 -44
-44 -46 -86 -5 -127 60 -59 148 -25 161 62 l6 44 22 -35 c28 -44 69 -171 83
-258 7 -44 7 -110 2 -192 -9 -124 -9 -125 -22 -80 -7 25 -30 82 -52 128 -70
145 -196 251 -338 284 -28 6 -54 8 -58 4 -4 -3 19 -32 49 -64 202 -204 208
-440 24 -837 l-51 -110 0 -115 c0 -134 20 -205 86 -302 36 -54 39 -63 39 -130
0 -40 7 -117 15 -171 74 -491 444 -851 1010 -982 123 -29 83 -32 -110 -10
-197 23 -420 71 -490 105 -87 43 -301 202 -443 331 -271 245 -457 490 -602
791 -131 274 -190 544 -190 876 0 114 0 114 30 142 36 33 39 74 9 106 l-20 21
45 101 c77 171 96 223 126 341 31 122 54 163 160 289 34 41 66 69 84 73 33 9
46 24 46 56 0 29 143 153 225 195 82 43 200 51 263 19 52 -26 87 -73 103 -134
22 -88 -23 -169 -87 -153 -20 5 -25 12 -22 34 2 16 12 31 28 39 l25 13 -27 0
c-49 0 -66 -68 -23 -96 50 -33 117 11 129 85 14 92 -35 185 -121 227 -49 24
-61 26 -136 21 -74 -5 -79 -4 -56 8 54 29 174 55 250 55 176 0 286 -78 325
-230 27 -107 -12 -219 -88 -248 -30 -12 -41 -12 -65 0 -58 27 -27 118 35 104
26 -6 26 -6 8 9 -25 19 -36 19 -64 -1 -51 -35 -48 -109 4 -133 65 -29 138 0
176 71 19 36 23 59 23 133 0 108 -21 159 -92 230 -66 64 -134 88 -253 89 -97
0 -157 -12 -258 -53 l-52 -21 28 58 c45 90 57 146 56 267 0 82 -6 130 -22 189
-40 139 -33 136 -138 46z m-59 -474 c-19 -86 -68 -202 -100 -241 -30 -36 -30
-29 -10 91 17 94 37 148 88 232 l32 54 3 -35 c2 -19 -4 -65 -13 -101z m4116
-2 c16 -34 36 -102 44 -150 20 -116 20 -125 -7 -94 -51 60 -118 256 -118 344
l0 41 26 -39 c15 -21 39 -67 55 -102z m-4243 -104 c-2 -54 -10 -106 -17 -120
l-14 -24 -9 24 c-13 33 -4 197 12 235 l12 30 10 -25 c5 -14 8 -68 6 -120z
m4341 86 c12 -50 14 -181 2 -211 -7 -19 -9 -18 -21 5 -25 46 -25 271 -1 255 5
-2 14 -25 20 -49z m-4134 -45 c-19 -55 -56 -109 -109 -161 -53 -51 -57 -43
-19 36 25 53 115 164 134 164 4 0 2 -17 -6 -39z m3942 -15 c45 -49 103 -149
103 -178 0 -17 -87 69 -117 116 -29 45 -56 116 -44 116 5 0 31 -24 58 -54z
m-4728 -412 c46 -108 79 -233 90 -336 8 -88 5 -265 -6 -298 -7 -21 -34 34 -77
159 -60 171 -77 312 -59 494 3 37 10 64 14 60 4 -4 21 -40 38 -79z m5520 -110
c1 -50 -6 -129 -14 -175 -23 -133 -109 -369 -127 -351 -13 13 -13 298 1 372
17 87 55 206 93 288 l32 67 7 -55 c4 -30 7 -96 8 -146z m-5294 -147 c0 -146
-8 -187 -61 -312 -15 -36 -17 -38 -24 -19 -5 12 -11 61 -15 110 -8 105 4 182
47 301 42 117 53 101 53 -80z m5077 42 c30 -87 32 -103 31 -214 -1 -66 -5
-133 -11 -150 l-9 -30 -17 40 c-54 126 -60 156 -61 300 0 144 8 195 25 164 5
-9 24 -59 42 -110z m-5393 -114 c47 -77 77 -157 94 -248 l15 -78 -20 18 c-37
32 -117 145 -143 199 -23 48 -65 199 -65 234 0 22 82 -63 119 -125z m5746 48
c-10 -43 -26 -100 -37 -127 -22 -56 -104 -179 -147 -220 l-29 -28 14 73 c18
98 30 132 72 213 34 65 129 182 139 172 3 -3 -3 -40 -12 -83z m-4292 -680
c-16 -161 -74 -363 -148 -520 -44 -93 -148 -258 -204 -323 -30 -34 -30 -34
-30 -10 -1 41 46 264 74 355 30 99 72 196 122 279 48 81 176 266 184 266 4 0
4 -21 2 -47z m2813 -56 c136 -196 187 -296 234 -462 30 -104 70 -300 70 -338
-1 -20 -4 -19 -31 13 -102 119 -221 335 -278 505 -42 128 -91 385 -72 385 3 0
38 -46 77 -103z m-3166 -184 c25 -175 -3 -374 -74 -527 l-33 -71 -11 78 c-17
110 -15 265 4 350 18 82 83 257 94 257 4 0 14 -39 20 -87z m3503 -5 c19 -51
42 -125 51 -165 19 -85 21 -240 4 -350 l-11 -78 -33 71 c-48 103 -75 214 -81
334 -6 105 11 280 27 280 4 0 23 -42 43 -92z m-2993 -94 c0 -3 -17 -43 -39
-89 -75 -160 -174 -282 -315 -387 -43 -32 -81 -57 -83 -55 -8 8 76 172 125
247 53 80 152 182 242 249 53 39 70 48 70 35z m2478 -26 c71 -49 200 -176 244
-242 39 -57 106 -182 128 -240 l11 -29 -28 18 c-160 101 -291 252 -374 430
-53 112 -52 112 19 63z m-4273 -374 c122 -73 224 -167 314 -286 41 -55 154
-268 146 -276 -6 -6 -153 95 -233 161 -40 34 -99 95 -131 137 -57 75 -179 300
-164 300 4 0 35 -16 68 -36z m6029 -76 c-101 -197 -198 -304 -397 -438 -43
-28 -80 -50 -82 -48 -3 2 20 52 49 112 79 156 168 268 291 366 60 48 173 120
188 120 4 0 -18 -50 -49 -112z m-6404 -45 c141 -46 364 -158 479 -240 87 -62
349 -309 339 -319 -7 -6 -284 89 -377 130 -107 47 -201 102 -293 171 -83 62
-293 257 -308 286 -10 17 -8 18 22 12 18 -3 80 -21 138 -40z m6920 28 c-15
-29 -225 -224 -308 -286 -99 -75 -195 -129 -316 -180 -113 -47 -347 -127 -354
-121 -10 10 253 257 339 318 156 111 383 219 561 267 92 25 91 25 78 2z
m-7007 -110 c192 -201 291 -343 371 -533 48 -115 128 -349 122 -356 -10 -10
-257 252 -319 339 -37 52 -98 157 -137 234 -84 171 -167 415 -141 415 5 0 51
-45 104 -99z m7040 67 c-28 -152 -169 -462 -280 -617 -61 -85 -309 -349 -318
-339 -5 5 31 119 78 249 69 191 154 343 266 477 71 85 241 262 252 262 5 0 6
-15 2 -32z m-6533 -449 c79 -25 196 -83 276 -135 58 -38 58 -39 29 -42 -16 -2
-77 1 -135 6 -58 5 -108 6 -111 3 -3 -3 -2 -53 3 -111 5 -58 8 -118 6 -135 -3
-29 -4 -29 -42 30 -79 120 -146 277 -163 379 l-6 39 39 -6 c21 -4 68 -16 104
-28z m6060 13 c0 -27 -34 -140 -64 -209 -30 -71 -120 -228 -137 -239 -10 -6
-8 95 5 253 0 12 -5 17 -17 17 -158 -13 -259 -15 -253 -5 11 17 168 107 239
137 74 32 173 62 205 63 15 1 22 -5 22 -17z m-6491 -173 c42 -31 102 -88 134
-126 61 -72 171 -232 165 -238 -2 -3 -52 20 -112 49 -156 79 -268 168 -366
291 -48 60 -120 173 -120 188 0 15 225 -107 299 -164z m7051 106 c-67 -117
-171 -232 -292 -324 -55 -41 -268 -154 -276 -146 -6 6 93 150 154 226 51 63
113 119 183 169 43 30 254 140 259 135 2 -2 -10 -29 -28 -60z m-8715 -94 c44
-11 98 -27 120 -37 50 -20 172 -104 209 -143 l28 -29 -73 14 c-97 18 -132 30
-211 71 -70 36 -194 142 -168 142 8 1 51 -8 95 -18z m10162 -36 c-57 -52 -158
-112 -228 -134 -19 -6 -68 -17 -108 -25 l-73 -14 28 29 c37 39 159 122 209
144 45 19 180 53 210 54 15 0 6 -13 -38 -54z m-7586 -34 c106 -74 278 -180
349 -216 30 -15 64 -36 74 -48 19 -20 19 -20 -15 -14 -173 32 -278 40 -374 29
-115 -12 -131 -17 -140 -40 -3 -9 -11 -62 -17 -117 -11 -96 -3 -201 29 -374 6
-34 6 -34 -14 -15 -12 10 -33 44 -48 74 -35 69 -140 239 -216 350 l-59 85 35
68 c19 37 39 94 46 126 l11 59 58 11 c32 7 87 27 122 45 34 18 66 34 69 35 3
0 43 -25 90 -58z m5119 21 c36 -18 90 -37 121 -43 l57 -11 11 -59 c7 -32 27
-89 46 -126 l35 -68 -69 -100 c-79 -116 -170 -263 -207 -338 -15 -29 -35 -61
-47 -71 -20 -19 -20 -19 -14 15 32 173 40 278 29 374 -12 115 -17 131 -40 140
-9 3 -62 11 -117 17 -96 11 -201 3 -374 -29 -34 -6 -34 -6 -15 14 10 12 44 33
74 48 71 36 243 142 349 216 47 33 87 58 90 56 4 -1 35 -17 71 -35z m-7709
-97 c133 -23 369 -109 351 -127 -13 -13 -298 -13 -372 1 -88 17 -207 56 -288
94 l-67 31 50 6 c93 12 242 10 326 -5z m10459 6 l55 -7 -67 -32 c-82 -38 -201
-76 -288 -93 -74 -14 -359 -14 -372 -1 -18 18 219 105 342 127 82 14 243 17
330 6z m-10165 -190 l30 -8 -40 -17 c-123 -53 -166 -61 -312 -61 -85 0 -146 4
-152 10 -13 13 100 59 194 81 62 14 222 12 280 -5z m9825 5 c94 -20 212 -68
199 -81 -6 -6 -67 -10 -152 -10 -120 0 -152 3 -207 22 -87 29 -143 53 -138 59
8 7 119 21 178 23 30 0 84 -6 120 -13z m-6810 -141 c25 -7 92 -30 150 -51
l105 -39 -140 -6 c-162 -7 -191 -12 -261 -45 -91 -43 -154 -131 -154 -215 0
-27 -15 -39 -48 -39 -75 0 -166 -68 -206 -154 -33 -70 -38 -99 -45 -261 l-6
-140 -39 105 c-59 163 -67 197 -69 320 -2 107 0 119 25 174 26 55 96 152 144
200 74 75 190 148 261 166 47 11 222 2 283 -15z m3867 -9 c52 -24 150 -94 197
-142 48 -48 118 -145 144 -200 25 -55 27 -67 25 -174 -1 -63 -9 -137 -17 -165
-22 -80 -89 -256 -94 -251 -2 3 -4 43 -3 88 2 130 -14 240 -45 303 -44 90
-130 155 -206 155 -33 0 -48 12 -48 39 0 124 -119 230 -282 251 -40 5 -118 10
-173 10 -112 1 -114 -1 52 61 177 65 342 74 450 25z m-3471 -121 c113 -31 297
-69 424 -87 62 -8 192 -13 370 -13 249 0 287 3 405 25 72 13 146 24 165 24 19
0 94 -11 165 -24 118 -22 156 -25 405 -25 178 0 308 5 370 13 127 18 311 56
424 87 113 31 124 31 192 -1 71 -34 101 -76 139 -194 38 -119 92 -185 169
-204 48 -12 50 -14 62 -62 19 -77 85 -131 204 -169 118 -38 160 -68 194 -139
32 -68 32 -79 1 -192 -39 -142 -72 -318 -91 -476 -23 -205 -15 -554 17 -728
29 -154 29 -166 0 -320 -32 -174 -40 -523 -17 -728 19 -158 52 -334 91 -476
31 -113 31 -124 -1 -192 -34 -71 -76 -101 -194 -139 -119 -38 -185 -92 -204
-169 -12 -48 -14 -50 -62 -62 -77 -19 -131 -85 -169 -204 -38 -118 -68 -160
-139 -194 -68 -32 -79 -32 -192 -1 -113 31 -297 69 -424 87 -62 8 -192 13
-370 13 -249 0 -287 -3 -405 -25 -160 -30 -170 -30 -330 0 -118 22 -156 25
-405 25 -178 0 -308 -5 -370 -13 -127 -18 -311 -56 -424 -87 -113 -31 -124
-31 -192 1 -71 34 -101 76 -139 194 -38 120 -92 185 -170 205 -48 12 -50 14
-58 55 -7 33 -21 55 -60 94 -45 45 -64 55 -146 81 -119 38 -161 68 -195 139
-32 68 -32 79 -1 192 31 113 69 297 87 424 8 62 13 192 13 370 0 249 -3 287
-25 405 -13 72 -24 146 -24 165 0 19 11 94 24 165 22 118 25 156 25 405 0 178
-5 308 -13 370 -18 127 -56 311 -87 424 -31 113 -31 124 1 192 34 71 76 101
195 139 82 26 101 36 146 81 39 39 53 61 60 94 8 41 10 43 58 55 78 20 132 85
170 205 37 117 68 160 137 194 66 32 82 32 194 1z m-324 -20 c-112 -44 -184
-103 -249 -207 -20 -32 -37 -58 -39 -58 -10 0 22 62 61 115 59 84 123 130 220
161 68 22 73 14 7 -11z m3435 -10 c72 -32 124 -76 172 -145 36 -51 67 -110 57
-110 -2 0 -19 26 -39 58 -65 103 -135 162 -249 208 -44 17 -52 23 -28 18 19
-3 59 -16 87 -29z m-7362 -104 c19 -7 18 -9 -5 -21 -47 -25 -280 -25 -254 0
26 25 210 40 259 21z m11470 -11 l30 -12 -25 -10 c-35 -13 -209 -5 -240 12
-23 13 -24 14 -5 21 29 12 205 4 240 -11z m-11455 -52 c-60 -51 -256 -118
-344 -118 l-41 0 38 26 c90 61 242 110 347 113 l25 0 -25 -21z m11348 -4 c61
-13 147 -52 207 -93 l30 -21 -41 0 c-89 0 -286 68 -344 119 l-25 22 55 -6 c30
-4 83 -13 118 -21z m-11368 -70 c-25 -25 -62 -57 -84 -71 -45 -29 -116 -56
-116 -44 0 18 112 110 162 135 78 37 88 32 38 -20z m11278 19 c53 -27 162
-116 162 -134 0 -12 -71 15 -116 44 -48 31 -133 117 -115 117 7 0 38 -12 69
-27z m-7698 -97 c0 -2 -26 -19 -57 -39 -102 -63 -162 -134 -204 -238 -24 -63
-33 -76 -24 -34 11 47 51 131 81 171 28 37 132 116 175 133 29 12 29 12 29 7z
m4195 -61 c34 -24 74 -60 89 -79 30 -40 70 -124 81 -171 9 -42 0 -29 -24 34
-42 104 -102 175 -203 238 -32 20 -58 37 -58 39 0 10 62 -22 115 -61z m-5788
-77 l78 -11 -71 -33 c-103 -48 -214 -75 -334 -81 -104 -6 -280 11 -280 27 0
10 150 66 240 90 88 22 249 26 367 8z m7629 -8 c92 -23 244 -79 244 -90 0 -16
-176 -33 -280 -27 -120 6 -232 33 -334 81 l-71 33 65 10 c116 19 288 15 376
-7z m-7516 -85 c0 -7 -138 -107 -211 -153 -87 -55 -213 -114 -324 -151 -128
-42 -385 -91 -385 -72 0 10 196 144 285 194 138 79 247 117 465 162 112 23
170 30 170 20z m7187 -16 c219 -42 349 -86 488 -166 89 -50 285 -184 285 -194
0 -19 -256 29 -385 72 -134 44 -297 128 -417 214 -59 42 -110 80 -113 86 -9
14 23 11 142 -12z m-7202 -106 c-68 -107 -187 -229 -288 -296 -66 -44 -226
-121 -234 -114 -11 11 64 106 156 197 98 97 192 161 316 214 33 14 62 25 64
26 2 0 -5 -12 -14 -27z m7189 -34 c117 -59 183 -108 267 -196 77 -81 145 -170
136 -180 -8 -7 -168 70 -234 114 -101 67 -220 189 -288 296 l-18 28 29 -11
c16 -6 64 -29 108 -51z m-7619 -2838 c180 -84 328 -213 430 -374 l18 -28 -29
11 c-58 22 -183 89 -240 128 -102 68 -308 302 -268 302 3 0 44 -18 89 -39z
m8025 33 c0 -34 -188 -238 -271 -295 -55 -37 -189 -108 -244 -129 l-28 -11 18
28 c102 160 249 289 428 374 83 39 97 44 97 33z m-8305 -176 c239 -47 440
-138 655 -297 53 -39 70 -57 57 -59 -21 -4 -214 32 -317 59 -105 28 -211 72
-305 126 -89 50 -285 184 -285 194 0 9 80 0 195 -23z m8685 25 c0 -11 -191
-142 -285 -196 -139 -80 -269 -124 -488 -166 -119 -23 -151 -26 -143 -12 13
20 208 153 287 195 161 86 368 152 544 175 39 4 73 9 78 10 4 0 7 -2 7 -6z
m-6785 -453 c27 -130 136 -240 237 -240 33 0 48 -12 48 -39 0 -85 63 -172 156
-216 64 -30 197 -49 294 -43 114 8 113 -4 -1 -46 -163 -59 -196 -67 -319 -69
-107 -2 -119 0 -174 25 -55 26 -152 96 -200 144 -48 48 -118 145 -144 200 -25
55 -27 67 -25 174 2 123 10 157 69 320 l39 105 6 -140 c4 -78 10 -156 14 -175z
m4765 165 c32 -87 43 -133 51 -218 11 -120 4 -178 -32 -250 -22 -42 -96 -142
-135 -181 -48 -48 -145 -118 -200 -144 -55 -25 -67 -27 -174 -25 -123 2 -156
10 -319 69 -114 42 -115 54 -1 46 100 -7 231 13 295 44 95 47 155 130 155 215
0 27 15 39 48 39 76 0 162 65 206 155 30 61 47 172 45 290 0 39 0 79 1 90 l1
20 9 -20 c5 -11 28 -69 50 -130z m-4721 -44 c42 -104 102 -175 204 -238 63
-40 71 -48 30 -32 -44 16 -147 95 -177 133 -30 40 -70 124 -81 171 -9 42 0 29
24 -34z m4620 13 c-27 -96 -79 -168 -164 -229 -53 -39 -115 -71 -115 -61 0 2
26 19 58 39 102 64 163 136 204 242 24 63 33 68 17 9z m-6095 -54 c44 -12 112
-36 150 -54 l71 -33 -78 -11 c-121 -19 -271 -15 -363 8 -93 23 -244 79 -244
91 0 15 128 28 255 24 94 -2 152 -9 209 -25z m7941 19 c41 -6 75 -15 75 -19 0
-11 -153 -67 -244 -90 -91 -23 -241 -27 -362 -9 l-77 12 45 23 c158 81 369
112 563 83z m-9869 -262 c47 -30 133 -117 116 -117 -44 0 -232 131 -232 161 0
12 71 -15 116 -44z m11484 -2 c-41 -42 -163 -115 -191 -115 -18 0 67 86 115
117 41 26 108 53 115 47 3 -3 -15 -24 -39 -49z m-11608 -44 c87 -22 192 -68
228 -100 l25 -22 -55 6 c-130 15 -232 51 -325 114 l-30 21 41 0 c22 0 75 -9
116 -19z m11774 -7 c-67 -46 -162 -83 -252 -99 -116 -20 -125 -20 -94 7 60 51
249 116 340 117 l45 1 -39 -26z m-8524 -67 c-25 -97 -35 -262 -23 -355 6 -50
14 -98 17 -106 8 -21 26 -26 139 -38 96 -11 201 -3 374 29 34 6 34 6 15 -14
-10 -12 -44 -33 -74 -48 -69 -35 -239 -140 -350 -216 l-85 -59 -68 35 c-37 19
-94 39 -126 46 l-59 11 -11 59 c-7 32 -27 89 -46 126 l-35 68 59 85 c76 111
181 281 216 350 29 58 58 93 64 78 1 -5 -2 -28 -7 -51z m641 6 c65 -104 135
-163 249 -209 44 -17 52 -23 28 -18 -47 8 -132 47 -176 80 -38 30 -117 133
-133 177 -16 41 -8 33 32 -30z m3907 31 c-17 -45 -89 -140 -131 -173 -46 -37
-128 -76 -179 -85 -24 -5 -16 1 28 18 114 46 184 105 249 209 39 63 48 71 33
31z m664 -61 c37 -75 128 -222 207 -338 l69 -100 -35 -68 c-19 -37 -39 -94
-46 -126 l-11 -59 -59 -11 c-32 -7 -89 -27 -126 -46 l-68 -35 -85 59 c-111 76
-281 181 -350 216 -30 15 -64 36 -74 48 -19 20 -19 20 15 14 173 -32 278 -40
374 -29 115 12 131 17 140 40 3 9 11 62 17 117 11 96 3 201 -29 374 -6 34 -6
34 14 15 12 -10 32 -42 47 -71z m-8282 -34 c89 -23 28 -45 -100 -37 -75 5
-141 23 -129 35 10 9 118 20 157 15 19 -2 52 -8 72 -13z m11513 1 c18 -7 17
-9 -10 -20 -38 -16 -202 -25 -235 -12 l-24 9 21 11 c48 26 193 33 248 12z
m-10750 -368 c33 -11 78 -28 100 -38 l40 -17 -30 -8 c-65 -18 -199 -21 -270
-6 -84 18 -218 68 -207 78 13 13 66 17 187 14 90 -2 135 -8 180 -23z m10135
12 c12 -12 -111 -61 -205 -81 -71 -15 -206 -12 -270 6 l-30 8 25 11 c14 5 43
17 65 27 79 34 156 45 283 41 68 -1 127 -7 132 -12z m-8394 -116 c-129 -194
-236 -290 -434 -392 -62 -31 -112 -53 -112 -49 0 15 72 128 120 188 98 123
210 212 366 291 60 29 110 52 112 49 2 -2 -21 -41 -52 -87z m6432 -7 c137 -80
280 -222 363 -362 21 -36 39 -68 39 -72 0 -10 -171 76 -240 121 -81 52 -145
108 -204 181 -52 64 -156 214 -156 225 0 8 124 -50 198 -93z m-6299 -52 c-90
-267 -167 -419 -292 -574 -76 -96 -255 -285 -268 -285 -27 0 57 245 141 415
39 77 100 182 137 234 62 86 309 349 319 339 2 -3 -15 -60 -37 -129z m6188
-69 c108 -120 198 -256 267 -401 75 -157 150 -389 127 -389 -11 0 -181 177
-252 262 -136 164 -233 355 -321 637 -11 35 -22 71 -26 80 -10 27 116 -89 205
-189z m-7894 110 c19 -17 -254 -112 -370 -129 -80 -12 -219 -13 -303 -2 l-55
7 67 32 c121 56 267 95 393 105 62 5 259 -5 268 -13z m1819 -140 c-5 -58 -6
-108 -3 -111 3 -3 53 -2 111 3 58 5 119 8 135 6 29 -3 29 -4 -29 -42 -119 -78
-280 -147 -380 -163 l-39 -6 6 39 c17 102 84 259 163 379 38 59 39 59 42 30 2
-16 -1 -77 -6 -135z m5858 65 c27 -47 62 -115 78 -152 35 -83 69 -209 59 -220
-11 -10 -137 24 -220 59 -75 32 -232 122 -243 139 -6 10 95 8 253 -5 12 0 17
5 17 17 -13 158 -15 259 -5 253 6 -4 33 -45 61 -91z m2135 73 c79 -13 200 -52
283 -90 l67 -32 -55 -7 c-169 -22 -342 -3 -510 56 -129 45 -181 71 -160 79 43
16 266 13 375 -6z m-9820 -88 c-42 -44 -164 -126 -221 -148 -56 -23 -203 -57
-210 -49 -12 11 118 112 191 148 64 32 169 63 264 78 3 1 -8 -13 -24 -29z
m9604 -11 c68 -22 168 -80 225 -131 31 -28 55 -53 52 -55 -7 -8 -154 26 -210
49 -56 22 -179 104 -220 147 l-28 29 73 -14 c40 -8 89 -19 108 -25z m-7491
-280 c-138 -160 -349 -318 -549 -413 -109 -52 -287 -116 -357 -129 -30 -6 -32
-5 -22 12 15 29 225 224 308 286 145 109 276 173 532 261 69 23 129 43 133 43
5 1 -16 -27 -45 -60z m5303 20 c249 -83 396 -155 541 -264 83 -62 293 -257
308 -286 10 -17 8 -18 -22 -12 -70 13 -248 77 -357 129 -145 69 -281 159 -401
267 -81 72 -210 207 -198 207 3 0 60 -19 129 -41z m-5261 -144 c-71 -159 -165
-286 -288 -391 -69 -59 -196 -144 -215 -144 -16 0 109 226 164 300 32 42 89
103 128 135 69 57 219 164 233 165 4 0 -6 -29 -22 -65z m5203 10 c192 -128
290 -236 391 -433 31 -62 54 -112 49 -112 -4 0 -36 18 -72 39 -140 83 -282
226 -362 363 -43 73 -101 198 -93 198 3 0 42 -25 87 -55z m-4257 -538 c114
-170 193 -362 232 -562 23 -115 32 -195 23 -195 -8 0 -136 185 -184 266 -54
90 -95 187 -127 299 -30 104 -70 300 -70 338 1 20 4 19 31 -13 16 -19 59 -79
95 -133z m84 88 c73 -56 156 -145 209 -224 47 -68 126 -229 118 -238 -10 -9
-99 59 -181 136 -87 84 -156 182 -216 308 -22 46 -40 86 -40 89 0 8 42 -19
110 -71z m3179 48 c-21 -57 -88 -183 -127 -239 -62 -93 -280 -289 -299 -271
-9 10 75 175 127 252 58 83 170 194 252 249 29 20 54 36 55 36 1 0 -2 -12 -8
-27z m91 -116 c-41 -217 -96 -376 -177 -511 -48 -81 -176 -266 -184 -266 -19
0 30 257 72 385 56 169 129 306 248 465 39 53 56 70 59 57 2 -9 -6 -68 -18
-130z m-3470 -113 c27 -103 36 -265 20 -377 -6 -48 -16 -87 -20 -87 -11 0 -76
175 -94 257 -19 85 -21 240 -4 350 l11 78 33 -71 c18 -38 42 -106 54 -150z
m3587 15 c5 -109 2 -152 -12 -215 -19 -86 -83 -264 -95 -264 -16 0 -33 175
-27 280 6 118 32 227 79 332 l32 72 9 -35 c4 -19 10 -95 14 -170z m-4573
-1011 c-18 -97 -30 -131 -72 -212 -34 -65 -129 -182 -139 -172 -8 7 27 154 49
210 22 58 73 136 129 200 22 25 42 46 44 46 1 0 -3 -32 -11 -72z m5546 -53
c27 -40 58 -94 68 -121 22 -56 57 -203 49 -210 -10 -10 -105 107 -139 172 -42
81 -54 115 -72 213 l-14 73 29 -28 c16 -15 51 -60 79 -99z m-5458 -51 c1 -200
-27 -335 -104 -502 l-32 -67 -7 55 c-12 94 -10 234 6 321 23 133 109 369 127
351 5 -5 9 -76 10 -158z m5362 -3 c60 -172 79 -342 57 -511 l-7 -55 -32 67
c-38 82 -76 201 -93 288 -12 68 -15 352 -3 372 10 15 35 -37 78 -161z m-5289
92 c52 -124 60 -164 60 -310 0 -181 -11 -197 -53 -80 -43 118 -55 196 -47 297
6 84 14 130 21 130 2 0 11 -17 19 -37z m5171 -97 c7 -97 -6 -176 -48 -293 -43
-118 -53 -101 -53 85 1 152 6 179 61 307 l17 40 8 -29 c5 -16 11 -66 15 -110z
m-4684 -805 c36 -78 68 -199 68 -255 l0 -41 -21 30 c-63 93 -99 195 -114 325
l-6 55 22 -25 c12 -14 35 -54 51 -89z m95 -15 c29 -45 56 -116 44 -116 -30 0
-161 188 -161 232 0 17 87 -69 117 -116z m4053 44 c-30 -59 -113 -160 -131
-160 -10 0 14 69 37 107 25 40 118 135 122 124 2 -5 -11 -37 -28 -71z m66 -29
c-17 -96 -43 -165 -94 -246 l-32 -50 0 41 c0 53 33 182 65 251 30 66 68 120
73 105 2 -6 -4 -51 -12 -101z m-4296 41 c12 -43 12 -188 0 -217 -7 -18 -9 -18
-20 10 -25 60 -25 265 0 250 5 -3 14 -22 20 -43z m4357 -87 c-2 -49 -10 -103
-17 -120 l-12 -30 -10 25 c-13 35 -5 209 11 240 l14 24 9 -24 c6 -14 8 -65 5
-115z"/>
<path d="M3703 8959 c4 -87 14 -180 27 -234 22 -100 70 -249 77 -242 2 3 -5
49 -15 103 -28 139 -44 296 -40 384 l3 75 75 3 c88 4 245 -12 384 -40 54 -10
100 -17 103 -15 7 7 -142 55 -242 77 -54 13 -147 23 -234 27 l-144 6 6 -144z"/>
<path d="M8855 9093 c-115 -15 -385 -87 -372 -99 3 -3 49 4 103 14 139 28 296
44 384 40 l75 -3 3 -75 c4 -88 -12 -245 -40 -384 -10 -54 -17 -100 -15 -103 7
-7 55 142 77 242 13 54 23 147 27 233 l6 142 -109 -1 c-60 -1 -122 -4 -139 -6z"/>
<path d="M6390 8586 c0 -25 5 -46 10 -46 6 0 10 18 10 39 0 22 -4 43 -10 46
-6 4 -10 -12 -10 -39z"/>
<path d="M5945 8586 c-48 -21 -77 -60 -82 -110 -12 -104 42 -193 149 -242 56
-26 74 -29 163 -28 66 0 121 6 161 18 61 18 63 18 150 -4 259 -65 474 57 451
256 -8 76 -84 136 -144 113 -61 -23 -104 -89 -83 -128 15 -28 30 -27 30 3 0
14 5 28 11 31 19 12 55 -4 69 -30 26 -48 -28 -117 -112 -144 -38 -13 -128 -6
-128 9 0 5 18 19 39 31 22 12 48 37 58 56 16 30 16 36 3 61 -25 43 -60 40
-142 -13 -98 -62 -133 -72 -183 -50 -22 9 -68 34 -102 56 -72 47 -109 49 -133
7 -13 -25 -13 -31 3 -61 10 -19 36 -44 58 -56 21 -12 39 -26 39 -31 0 -4 -20
-11 -45 -15 -78 -11 -156 25 -190 89 -17 31 -17 38 -5 61 14 26 50 42 69 30 6
-3 11 -17 11 -31 0 -31 17 -31 32 0 8 20 7 31 -8 57 -36 60 -91 86 -139 65z"/>
<path d="M5265 8201 c1 -116 14 -148 98 -238 53 -57 145 -133 161 -133 3 0 -2
16 -11 35 -15 32 -15 41 -3 83 7 26 15 65 17 87 7 60 -35 110 -160 193 l-103
69 1 -96z m218 -173 c10 -21 11 -39 3 -82 l-10 -56 -39 38 c-57 55 -78 101
-71 156 l7 45 48 -37 c26 -20 54 -49 62 -64z"/>
<path d="M7432 8229 c-124 -84 -166 -135 -159 -194 2 -22 10 -61 17 -87 12
-42 12 -51 -3 -83 -9 -19 -14 -35 -11 -35 16 0 108 76 161 133 85 91 97 122
98 239 0 54 0 98 0 97 0 0 -46 -32 -103 -70z m-11 -223 c-10 -23 -36 -58 -58
-78 l-39 -38 -10 56 c-13 69 -1 95 64 146 l47 36 7 -41 c6 -30 3 -51 -11 -81z"/>
<path d="M5686 8208 c-3 -10 -8 -25 -11 -33 -2 -8 -27 -26 -54 -40 -43 -21
-51 -30 -57 -61 -8 -42 1 -130 17 -171 l11 -28 12 32 c6 18 35 55 64 83 52 50
58 65 53 133 -1 15 -8 45 -16 65 -10 28 -14 33 -19 20z"/>
<path d="M7092 8180 c-28 -102 -21 -132 41 -190 28 -28 57 -65 63 -83 l12 -32
11 28 c16 41 25 129 17 171 -6 31 -14 40 -57 61 -34 18 -53 35 -62 57 l-13 32
-12 -44z"/>
<path d="M6250 8133 c-74 -24 -191 -62 -259 -84 -144 -46 -269 -106 -396 -190
-80 -53 -94 -59 -125 -54 -53 10 -86 34 -135 96 -84 107 -156 115 -323 35
l-100 -48 -48 -100 c-80 -167 -72 -239 35 -323 62 -49 86 -82 96 -135 5 -31
-1 -45 -54 -125 -32 -49 -79 -130 -104 -180 -42 -85 -64 -145 -171 -482 l-46
-143 46 -142 c110 -346 129 -398 171 -483 25 -49 72 -130 104 -180 53 -80 59
-94 54 -125 -10 -53 -34 -86 -96 -135 -107 -84 -115 -156 -35 -323 l48 -100
100 -48 c167 -80 239 -72 323 35 49 62 82 86 135 96 31 5 45 -1 125 -54 50
-32 131 -79 180 -104 85 -42 137 -61 483 -171 l142 -46 143 46 c345 110 397
129 482 171 50 25 131 72 180 104 80 53 94 59 125 54 53 -10 86 -34 135 -96
84 -107 156 -115 323 -35 l100 48 48 100 c80 167 72 239 -35 323 -62 49 -86
82 -96 135 -5 31 1 45 54 125 32 50 79 131 104 180 42 85 61 137 171 482 l46
143 -46 142 c-110 346 -129 398 -171 483 -25 50 -72 131 -104 180 -53 80 -59
94 -54 125 10 53 34 86 96 135 107 84 115 156 35 323 l-48 100 -100 48 c-167
80 -239 72 -323 -35 -49 -62 -82 -86 -135 -96 -31 -5 -45 1 -125 54 -126 83
-249 142 -395 189 -317 102 -411 132 -418 131 -4 -1 -68 -22 -142 -46z m217
-22 c26 -21 58 -50 71 -63 l23 -26 -35 -21 c-46 -29 -91 -81 -107 -125 -7 -20
-16 -36 -19 -36 -3 0 -12 16 -19 36 -16 44 -61 96 -107 125 l-35 21 23 26 c40
44 119 102 138 102 10 0 40 -17 67 -39z m-212 -41 c-37 -38 -43 -40 -97 -40
-70 0 -126 -25 -161 -72 -32 -43 -50 -108 -41 -156 8 -43 46 -123 67 -141 9
-7 21 -43 27 -80 21 -125 91 -211 171 -211 56 0 89 31 89 85 0 36 -5 48 -31
69 -36 30 -55 32 -81 9 -24 -21 -23 -36 3 -59 22 -19 22 -19 10 3 -15 29 -14
31 8 42 28 15 71 -21 71 -59 0 -57 -61 -85 -118 -54 -43 23 -89 103 -98 167
l-7 47 44 -20 c51 -23 126 -26 172 -6 39 16 96 73 103 103 4 13 10 23 14 23 4
0 10 -10 14 -23 7 -30 64 -87 103 -103 46 -20 121 -17 172 6 l44 20 -7 -47
c-9 -64 -55 -144 -98 -167 -57 -31 -118 -3 -118 54 0 38 43 74 71 59 22 -11
23 -13 8 -42 -12 -22 -12 -22 10 -3 25 23 26 34 4 58 -23 25 -48 23 -84 -10
-64 -57 -29 -152 56 -152 84 0 152 84 176 215 6 33 19 69 29 80 51 57 77 152
60 217 -25 94 -97 148 -198 148 -54 0 -60 2 -97 40 -43 44 -38 47 43 24 154
-44 290 -160 362 -307 22 -47 44 -101 47 -121 5 -33 4 -36 -46 -63 -111 -60
-159 -94 -185 -131 -28 -41 -60 -123 -72 -186 l-7 -39 44 6 c78 11 114 26 158
63 64 55 110 166 111 267 l1 32 15 -25 c14 -24 14 -22 9 30 l-6 55 22 -33 c15
-22 18 -36 11 -45 -16 -19 24 -134 69 -197 32 -46 40 -68 50 -135 6 -44 11
-81 12 -82 1 -1 38 -6 82 -12 67 -10 89 -18 135 -50 63 -45 178 -85 197 -69 9
7 23 4 45 -11 l33 -22 -55 6 c-52 5 -54 5 -30 -9 l25 -15 -32 -1 c-52 0 -135
-21 -184 -46 -85 -42 -149 -145 -149 -237 0 -28 1 -29 38 -22 61 11 143 43
184 71 37 26 71 74 131 185 27 50 30 51 63 46 20 -3 74 -25 121 -47 147 -72
263 -208 307 -362 23 -81 20 -86 -23 -44 -37 36 -39 41 -43 111 -3 64 -7 78
-34 111 -43 53 -97 79 -164 78 -56 -1 -124 -27 -165 -64 -11 -10 -47 -23 -80
-29 -130 -23 -215 -92 -215 -174 0 -57 30 -87 86 -87 35 0 47 5 68 31 30 36
32 55 9 81 -21 24 -36 23 -59 -3 -19 -22 -19 -22 3 -10 29 15 31 14 42 -8 15
-28 -21 -71 -59 -71 -57 0 -85 61 -54 118 23 43 103 89 167 98 l47 7 -20 -44
c-23 -51 -26 -126 -6 -172 16 -39 73 -96 103 -103 13 -4 23 -10 23 -14 0 -4
-10 -10 -23 -14 -30 -7 -87 -64 -103 -103 -20 -46 -17 -121 6 -172 l20 -44
-46 7 c-96 13 -184 83 -184 147 0 35 34 69 70 69 38 0 74 -43 59 -71 -11 -22
-13 -23 -42 -8 -22 12 -22 12 -3 -10 23 -25 34 -26 58 -4 25 22 23 46 -8 82
-21 25 -33 31 -67 31 -57 0 -87 -30 -87 -85 0 -84 84 -152 215 -176 33 -6 69
-19 80 -29 42 -38 109 -63 166 -63 69 0 121 24 163 77 27 33 31 47 34 111 4
70 6 75 43 111 43 42 46 37 23 -44 -44 -154 -160 -290 -307 -362 -47 -22 -101
-44 -121 -47 -33 -5 -36 -4 -63 46 -60 111 -94 159 -131 185 -41 28 -123 60
-184 71 -37 7 -38 6 -38 -23 0 -50 31 -130 68 -172 53 -63 165 -109 265 -110
l32 -1 -25 -15 c-24 -14 -22 -14 30 -9 l55 6 -33 -22 c-22 -15 -36 -18 -45
-11 -19 16 -134 -24 -197 -69 -46 -32 -68 -40 -135 -50 -44 -6 -81 -11 -82
-12 -1 -1 -6 -38 -12 -82 -10 -67 -18 -89 -50 -135 -45 -63 -85 -178 -69 -197
7 -9 4 -23 -11 -45 l-22 -33 6 55 c5 52 5 54 -9 30 l-15 -25 -1 32 c-1 101
-47 212 -111 267 -44 37 -80 52 -158 63 l-44 6 7 -39 c12 -63 44 -145 72 -186
26 -37 74 -71 185 -131 50 -27 51 -30 46 -63 -3 -20 -25 -74 -47 -121 -72
-147 -208 -263 -362 -307 -81 -23 -86 -20 -43 24 37 38 43 40 97 40 164 0 251
152 176 305 -11 22 -28 49 -38 60 -10 11 -23 47 -29 80 -24 131 -92 215 -176
215 -85 0 -120 -95 -56 -152 36 -32 57 -35 83 -11 24 21 23 36 -3 59 -22 19
-22 19 -10 -3 15 -29 14 -31 -8 -42 -28 -15 -71 21 -71 59 0 57 61 85 118 54
43 -23 89 -103 98 -167 l7 -47 -44 20 c-51 23 -126 26 -172 6 -39 -16 -96 -73
-103 -103 -8 -29 -20 -29 -28 0 -7 30 -64 87 -103 103 -46 20 -121 17 -172 -6
l-44 -20 7 47 c9 64 55 144 98 167 57 31 118 3 118 -54 0 -38 -43 -74 -71 -59
-22 11 -23 13 -8 42 12 22 12 22 -10 3 -25 -23 -26 -34 -4 -58 22 -25 46 -23
82 8 26 21 31 33 31 69 0 54 -33 85 -89 85 -80 0 -150 -86 -171 -211 -6 -37
-18 -73 -27 -80 -21 -18 -59 -98 -67 -141 -9 -48 9 -113 41 -156 35 -47 91
-72 161 -72 54 0 60 -2 97 -40 43 -44 38 -47 -43 -24 -154 44 -290 160 -362
307 -22 47 -44 101 -47 121 -5 33 -4 36 46 63 111 60 159 94 185 131 28 41 60
123 72 186 l7 39 -44 -6 c-78 -11 -114 -26 -158 -63 -64 -55 -110 -166 -111
-267 l-1 -32 -15 25 c-14 24 -14 22 -9 -30 l6 -55 -22 33 c-15 23 -18 36 -11
45 15 18 -26 134 -71 200 -30 44 -39 68 -49 135 -6 45 -16 82 -22 82 -6 0 -42
5 -81 11 -56 8 -81 18 -125 48 -63 45 -178 85 -197 69 -9 -7 -23 -4 -45 11
l-33 22 55 -6 c52 -5 54 -5 30 9 l-25 15 32 1 c101 1 212 47 266 110 33 39 67
129 67 179 0 21 -3 23 -37 16 -62 -11 -144 -43 -185 -71 -37 -26 -71 -74 -131
-185 -27 -50 -30 -51 -63 -46 -20 3 -74 25 -121 47 -147 72 -263 208 -307 362
-23 81 -20 86 23 44 37 -36 39 -41 43 -111 3 -64 7 -78 34 -111 42 -53 94 -77
163 -77 57 0 124 25 166 63 11 10 47 23 80 29 128 23 215 92 215 171 0 57 -31
90 -85 90 -36 0 -48 -5 -69 -31 -30 -36 -32 -55 -9 -81 21 -24 36 -23 59 3 19
22 19 22 -3 10 -29 -15 -31 -14 -42 8 -15 28 21 71 59 71 57 0 85 -61 54 -118
-23 -43 -103 -89 -167 -98 l-47 -7 20 44 c23 51 26 126 6 172 -16 39 -73 96
-103 103 -13 4 -23 10 -23 14 0 4 10 10 23 14 30 7 87 64 103 103 20 46 17
121 -6 172 l-20 44 47 -7 c64 -9 144 -55 167 -98 31 -57 3 -118 -54 -118 -38
0 -74 43 -59 71 11 22 13 23 42 8 22 -12 22 -12 3 10 -23 25 -34 26 -58 4 -25
-22 -23 -46 8 -82 21 -26 33 -31 69 -31 54 0 85 33 85 90 0 79 -87 148 -215
171 -33 6 -69 19 -80 29 -41 37 -109 63 -165 64 -67 1 -121 -25 -164 -78 -27
-33 -31 -47 -34 -111 -4 -70 -6 -75 -43 -111 -43 -42 -46 -37 -23 44 44 154
160 290 307 362 47 22 101 44 121 47 33 5 36 4 63 -46 60 -111 94 -159 131
-185 41 -28 123 -60 185 -71 34 -7 37 -5 37 16 0 50 -34 140 -67 179 -54 63
-165 109 -266 110 l-32 1 25 15 c24 14 22 14 -30 9 l-55 -6 33 22 c22 15 36
18 45 11 19 -16 134 24 197 69 44 30 69 40 125 48 39 6 75 11 81 11 6 0 16 37
22 82 10 67 19 91 49 135 45 66 86 182 71 200 -7 9 -4 22 11 45 l22 33 -6 -55
c-5 -52 -5 -54 9 -30 l15 25 1 -32 c1 -101 47 -212 111 -267 44 -37 80 -52
158 -63 l44 -6 -7 39 c-12 63 -44 145 -72 186 -26 37 -74 71 -185 131 -50 27
-51 30 -46 63 3 20 24 74 47 120 69 143 191 251 340 301 100 34 112 31 65 -17z
m-298 -112 c-52 -52 -95 -107 -117 -148 -18 -36 -57 -95 -84 -132 -46 -61 -55
-68 -86 -68 -109 0 -186 -64 -216 -177 l-18 -69 -69 -18 c-113 -30 -177 -107
-177 -216 0 -31 -7 -40 -68 -86 -37 -27 -96 -66 -132 -84 -41 -22 -96 -65
-147 -117 -46 -45 -83 -80 -83 -79 0 1 11 36 25 77 58 171 183 382 296 504 60
63 106 89 206 115 35 9 44 16 49 38 3 15 16 57 30 94 21 55 37 78 89 126 120
112 330 237 500 296 39 14 73 25 77 25 4 1 -30 -36 -75 -81z m884 57 c171 -58
382 -183 504 -296 63 -60 89 -106 115 -206 10 -39 14 -43 53 -53 100 -26 146
-52 206 -115 113 -122 238 -333 296 -504 14 -41 25 -76 25 -77 0 -1 -37 34
-82 79 -52 52 -107 95 -148 117 -36 18 -95 57 -132 84 -61 46 -68 55 -68 86 0
110 -64 186 -178 216 -68 17 -71 19 -77 54 -25 132 -107 209 -225 210 -31 0
-40 7 -86 68 -27 37 -66 96 -84 132 -22 41 -65 96 -117 148 -45 45 -80 82 -79
82 1 0 36 -11 77 -25z m-1543 -119 c15 -8 34 -27 42 -42 8 -15 28 -35 44 -45
l30 -18 -30 -12 c-43 -17 -157 -16 -181 1 -88 65 -104 80 -92 84 149 52 149
52 187 32z m2315 -6 c34 -12 68 -23 76 -26 12 -4 -4 -19 -92 -84 -24 -17 -138
-18 -181 -1 l-30 12 30 18 c16 10 36 30 44 45 14 27 53 55 78 56 7 0 41 -9 75
-20z m-2183 -157 c-155 -135 -285 -266 -373 -375 -17 -21 -32 -37 -33 -35 -2
2 10 44 26 95 35 107 47 210 31 266 -6 22 -9 41 -8 42 1 1 24 -3 50 -9 61 -14
172 1 272 36 39 14 74 25 80 26 5 1 -15 -20 -45 -46z m1970 21 c107 -36 216
-51 277 -37 26 6 49 11 50 10 1 -1 -4 -24 -10 -50 -14 -61 1 -170 37 -276 14
-41 24 -76 22 -78 -1 -2 -16 14 -33 35 -88 109 -218 240 -373 375 -30 26 -52
47 -50 47 3 0 39 -12 80 -26z m-2381 -153 c17 -33 21 -90 10 -142 -13 -63 -24
-80 -34 -50 -4 12 -24 33 -45 47 -59 40 -67 69 -40 157 13 39 25 75 27 80 4 7
67 -63 82 -92z m1189 76 c4 -20 -25 -34 -40 -19 -15 15 -1 44 19 40 10 -2 19
-11 21 -21z m430 0 c4 -20 -25 -34 -40 -19 -15 15 -1 44 19 40 10 -2 19 -11
21 -21z m1252 -64 c27 -86 19 -120 -36 -154 -19 -11 -41 -33 -48 -47 l-14 -27
-12 30 c-20 49 -17 157 4 191 31 48 71 92 77 85 3 -3 16 -39 29 -78z m-2286
-330 c-4 -38 -9 -71 -13 -74 -3 -4 -36 -9 -72 -13 l-66 -6 16 62 17 63 59 16
c33 9 61 17 63 18 1 0 0 -29 -4 -66z m1726 -31 l17 -62 -66 6 c-36 4 -69 9
-72 13 -4 3 -9 36 -13 72 l-6 66 61 -16 62 -16 17 -63z m-2182 -635 c4 -20
-25 -34 -40 -19 -15 15 -1 44 19 40 10 -2 19 -11 21 -21z m2550 0 c4 -20 -25
-34 -40 -19 -15 15 -1 44 19 40 10 -2 19 -11 21 -21z m-2860 -139 c18 -20 53
-45 77 -55 25 -10 45 -20 45 -23 0 -4 -16 -12 -36 -19 -44 -16 -96 -61 -125
-107 l-22 -36 -38 38 c-61 59 -92 110 -85 137 3 12 31 51 63 86 l57 64 16 -24
c8 -13 30 -40 48 -61z m3308 -65 c7 -27 -24 -77 -85 -137 l-38 -38 -22 36
c-29 46 -81 91 -125 107 -20 7 -36 16 -36 19 0 3 16 12 36 19 44 16 96 61 126
108 l22 37 58 -64 c32 -35 61 -74 64 -87z m-2998 -226 c4 -20 -25 -34 -40 -19
-15 15 -1 44 19 40 10 -2 19 -11 21 -21z m2550 0 c4 -20 -25 -34 -40 -19 -15
15 -1 44 19 40 10 -2 19 -11 21 -21z m-2708 -347 c36 -18 95 -57 132 -84 61
-46 68 -55 68 -86 0 -109 64 -186 177 -216 l69 -18 18 -69 c30 -113 107 -177
216 -177 31 0 40 -7 86 -68 27 -37 66 -96 84 -132 22 -41 65 -96 117 -147 45
-46 80 -83 79 -83 -1 0 -36 11 -77 25 -171 58 -382 183 -504 297 -52 48 -68
71 -89 126 -14 37 -27 79 -30 94 -5 22 -14 29 -49 38 -100 26 -146 52 -206
115 -113 122 -238 333 -296 504 -14 41 -25 76 -25 77 0 1 37 -34 83 -79 51
-52 106 -95 147 -117z m3025 119 c-58 -171 -183 -382 -296 -504 -60 -63 -106
-89 -206 -115 -39 -10 -43 -14 -53 -53 -26 -100 -52 -146 -115 -206 -122 -113
-333 -238 -504 -296 -41 -14 -76 -25 -77 -25 -1 0 34 37 79 83 52 51 95 106
117 147 18 36 57 95 84 132 46 61 55 68 86 68 118 1 200 78 225 210 6 35 9 37
77 54 114 30 178 106 178 216 0 31 7 40 68 86 37 27 96 66 132 84 42 22 94 64
145 115 44 45 81 80 82 80 2 -1 -8 -35 -22 -76z m-2424 -368 c4 -3 9 -36 13
-72 l6 -66 -62 16 -63 16 -16 63 -16 62 66 -6 c36 -4 69 -9 72 -13z m1739 -43
l-17 -63 -62 -16 -62 -16 6 61 c9 85 8 84 62 89 26 2 57 4 69 5 21 2 21 2 4
-60z m-2157 -237 c67 -72 145 -146 257 -243 30 -27 52 -48 50 -48 -3 0 -39 12
-80 26 -107 36 -216 51 -277 37 -26 -6 -49 -11 -50 -10 -1 1 4 24 10 50 14 61
-1 170 -37 277 -14 41 -26 77 -26 80 0 3 19 -17 43 -45 23 -27 73 -83 110
-124z m2581 88 c-36 -106 -51 -215 -37 -276 6 -26 11 -49 10 -50 -1 -1 -24 4
-50 10 -61 14 -170 -1 -276 -37 -41 -14 -76 -24 -78 -23 -1 2 34 34 78 71 101
87 233 220 312 313 34 40 62 71 64 70 1 -2 -9 -37 -23 -78z m-2725 -58 c11
-52 7 -109 -10 -142 -15 -29 -78 -99 -82 -92 -2 5 -14 41 -27 80 -27 88 -19
117 40 157 21 14 41 35 45 47 10 30 21 13 34 -50z m2825 0 c55 -34 63 -68 36
-154 -13 -39 -25 -75 -27 -80 -5 -8 -66 62 -85 97 -15 27 -14 142 2 181 l12
30 14 -27 c7 -14 29 -36 48 -47z m-1646 -214 c4 -20 -25 -34 -40 -19 -15 15
-1 44 19 40 10 -2 19 -11 21 -21z m430 0 c4 -20 -25 -34 -40 -19 -15 15 -1 44
19 40 10 -2 19 -11 21 -21z m-1248 -109 l25 -10 -27 -14 c-14 -7 -36 -29 -47
-48 -34 -55 -68 -63 -154 -36 -39 13 -76 25 -80 27 -13 7 92 85 126 94 36 8
118 2 157 -13z m2172 13 c38 -9 145 -86 131 -94 -4 -2 -41 -14 -80 -27 -88
-27 -117 -19 -157 40 -14 21 -35 41 -47 45 -29 10 -12 24 42 34 59 12 68 12
111 2z m-1143 -107 c16 -44 61 -96 108 -126 l37 -22 -64 -58 c-35 -32 -74 -61
-87 -64 -27 -7 -77 24 -137 85 l-38 38 36 22 c46 29 91 81 107 125 7 20 16 36
19 36 3 0 12 -16 19 -36z"/>
<path d="M5757 7488 c-14 -160 25 -360 98 -502 l42 -83 -83 42 c-142 73 -342
112 -501 98 -104 -9 -91 -20 17 -15 128 6 219 -5 218 -26 -1 -43 23 -175 36
-200 16 -29 60 -74 117 -115 l36 -27 11 25 c21 46 15 133 -13 181 -22 37 -114
111 -157 127 -7 2 -10 8 -6 12 13 13 138 -26 232 -73 125 -62 223 -157 276
-266 46 -92 60 -156 60 -266 0 -110 -14 -174 -60 -266 -53 -109 -151 -204
-276 -266 -94 -47 -219 -86 -232 -73 -4 4 -1 10 6 12 43 16 135 90 157 127 28
48 34 135 13 181 l-11 25 -36 -27 c-57 -41 -101 -86 -117 -115 -13 -25 -37
-157 -36 -200 1 -21 -90 -32 -218 -26 -108 5 -121 -6 -17 -15 159 -14 359 25
501 98 l83 42 -42 -83 c-73 -142 -112 -342 -98 -501 9 -104 20 -91 15 17 -6
128 5 219 26 218 43 -1 175 23 200 36 29 16 73 60 116 117 l26 36 -30 13 c-93
38 -196 -2 -260 -101 -21 -33 -41 -65 -43 -72 -2 -7 -8 -9 -12 -5 -13 13 26
138 73 232 62 125 157 223 266 276 92 46 156 60 266 60 110 0 174 -14 266 -60
109 -53 204 -151 266 -276 47 -94 86 -219 73 -232 -4 -4 -10 -2 -12 5 -2 7
-22 39 -43 72 -64 99 -167 139 -260 101 l-30 -13 26 -36 c43 -57 87 -101 116
-117 25 -13 157 -37 200 -36 21 1 32 -90 26 -218 -5 -108 6 -121 15 -17 14
159 -25 359 -98 501 l-42 83 83 -42 c142 -73 342 -112 502 -98 103 9 90 20
-18 15 -128 -6 -219 5 -218 26 1 43 -23 175 -36 200 -16 29 -60 74 -117 115
l-36 27 -11 -25 c-21 -46 -15 -133 13 -181 22 -37 114 -111 157 -127 7 -2 10
-8 6 -12 -13 -13 -138 26 -232 73 -125 62 -223 157 -276 266 -46 92 -60 156
-60 266 0 110 14 174 60 266 53 109 151 204 276 266 94 47 219 86 232 73 4 -4
1 -10 -6 -12 -43 -16 -135 -90 -157 -127 -28 -48 -34 -135 -13 -181 l11 -25
36 27 c57 41 101 86 117 115 13 25 37 157 36 200 -1 21 90 32 218 26 108 -5
121 6 18 15 -160 14 -360 -25 -502 -98 l-83 -42 42 83 c73 142 112 342 98 502
-9 103 -20 90 -15 -18 6 -128 -5 -219 -26 -218 -43 1 -175 -23 -200 -36 -29
-16 -74 -60 -115 -117 l-27 -36 25 -11 c47 -22 133 -15 182 14 39 22 109 110
126 157 2 7 8 9 12 5 13 -13 -26 -138 -73 -232 -62 -125 -157 -223 -266 -276
-92 -46 -156 -60 -266 -60 -110 0 -174 14 -266 60 -109 53 -204 151 -266 276
-47 94 -86 219 -73 232 4 4 10 2 12 -5 17 -47 87 -135 126 -157 49 -29 135
-36 182 -14 l25 11 -27 36 c-41 57 -86 101 -115 117 -25 13 -157 37 -200 36
-21 -1 -32 90 -26 218 5 108 -6 121 -15 18z m509 -833 c138 -29 284 -12 403
48 l67 33 -33 -67 c-82 -164 -82 -374 0 -538 l33 -67 -67 33 c-164 82 -374 82
-538 0 l-67 -33 33 67 c82 164 82 374 0 538 l-33 67 67 -33 c36 -18 97 -40
135 -48z"/>
<path d="M6151 6641 c8 -14 26 -32 40 -40 24 -16 24 -16 8 8 -8 14 -26 32 -40
40 l-24 16 16 -24z"/>
<path d="M6632 6644 c-12 -8 -27 -25 -33 -37 -12 -21 -11 -21 11 -6 21 14 58
59 48 59 -2 0 -14 -7 -26 -16z"/>
<path d="M6182 6194 c-12 -8 -27 -25 -33 -37 -12 -21 -11 -21 11 -6 21 14 58
59 48 59 -2 0 -14 -7 -26 -16z"/>
<path d="M6601 6191 c8 -14 26 -32 40 -40 24 -16 24 -16 8 8 -8 14 -26 32 -40
40 l-24 16 16 -24z"/>
<path d="M6363 7138 c-61 -65 -70 -142 -24 -189 40 -40 82 -39 123 1 28 28 30
35 26 81 -4 36 -14 60 -35 87 -36 45 -62 50 -90 20z m82 -35 c34 -51 35 -125
3 -147 -12 -9 -34 -16 -48 -16 -47 0 -70 26 -70 78 0 55 38 122 70 122 11 0
30 -16 45 -37z"/>
<path d="M6374 6715 c-19 -46 -20 -45 26 -45 22 0 40 2 40 5 0 18 -31 75 -40
75 -6 0 -18 -16 -26 -35z"/>
<path d="M5715 6474 c-46 -23 -76 -56 -73 -78 5 -34 72 -78 127 -84 46 -4 53
-2 81 26 40 41 41 83 1 123 -34 34 -87 39 -136 13z m129 -26 c9 -12 16 -34 16
-48 0 -47 -26 -70 -78 -70 -55 0 -122 38 -122 70 0 32 67 70 122 70 37 0 50
-5 62 -22z"/>
<path d="M6950 6462 c-21 -21 -30 -40 -30 -62 0 -22 9 -41 30 -62 28 -28 35
-30 81 -26 60 6 124 52 124 88 0 36 -64 82 -124 88 -46 4 -53 2 -81 -26z m145
-12 c18 -11 36 -27 39 -35 24 -63 -138 -120 -178 -63 -9 12 -16 34 -16 48 0
14 7 36 16 48 20 29 93 31 139 2z"/>
<path d="M6083 6425 c-42 -18 -42 -32 2 -51 46 -19 45 -20 45 26 0 44 -1 45
-47 25z"/>
<path d="M6670 6400 c0 -22 2 -40 5 -40 18 0 75 31 75 40 0 9 -57 40 -75 40
-3 0 -5 -18 -5 -40z"/>
<path d="M6360 6125 c0 -18 31 -75 40 -75 9 0 40 57 40 75 0 3 -18 5 -40 5
-22 0 -40 -2 -40 -5z"/>
<path d="M6338 5850 c-28 -28 -30 -35 -26 -81 6 -60 52 -124 88 -124 36 0 82
64 88 124 4 46 2 53 -26 81 -21 21 -40 30 -62 30 -22 0 -41 -9 -62 -30z m110
-6 c17 -12 22 -25 22 -62 0 -55 -38 -122 -70 -122 -32 0 -70 67 -70 122 0 52
23 78 70 78 14 0 36 -7 48 -16z"/>
<path d="M5605 7816 c-48 -23 -91 -63 -80 -74 21 -20 136 -52 163 -46 32 8
112 52 112 62 0 4 -19 20 -41 36 -48 34 -110 43 -154 22z"/>
<path d="M5011 7239 c-34 -47 -47 -94 -36 -136 7 -28 55 -102 67 -103 11 0 55
82 62 115 6 33 -33 156 -51 162 -6 2 -25 -15 -42 -38z"/>
<path d="M7078 7816 c-38 -20 -77 -50 -78 -58 0 -11 82 -55 115 -62 36 -7 160
35 160 53 0 7 -19 27 -42 43 -49 36 -115 46 -155 24z"/>
<path d="M7731 7258 c-30 -81 -40 -122 -35 -146 8 -32 52 -112 62 -112 4 0 21
19 37 43 43 60 42 128 -1 188 -38 52 -51 58 -63 27z"/>
<path d="M5005 5757 c-43 -60 -42 -128 1 -189 18 -23 38 -43 45 -43 18 0 60
124 53 160 -7 33 -51 115 -62 115 -4 0 -20 -19 -37 -43z"/>
<path d="M5590 5086 c-36 -12 -65 -28 -65 -35 0 -7 20 -27 43 -45 61 -43 129
-44 189 -1 24 17 43 33 43 37 0 11 -82 55 -115 62 -19 3 -54 -3 -95 -18z"/>
<path d="M7726 5758 c-13 -24 -27 -56 -30 -73 -7 -36 35 -160 53 -160 7 0 27
20 45 43 43 61 44 129 1 189 -16 24 -33 43 -37 43 -4 0 -18 -19 -32 -42z"/>
<path d="M7098 5100 c-33 -10 -98 -49 -98 -58 0 -4 19 -20 43 -37 60 -43 128
-42 189 1 23 18 43 38 43 45 0 7 -29 23 -65 35 -72 26 -73 26 -112 14z"/>
<path d="M4572 7432 c83 -124 133 -166 193 -159 22 2 61 10 87 17 42 12 51 12
83 -3 19 -9 35 -14 35 -11 0 16 -76 108 -133 161 -91 84 -122 97 -238 98 l-95
0 68 -103z m223 -11 c22 -10 57 -36 77 -58 l38 -39 -56 -10 c-69 -13 -95 -1
-147 66 l-37 49 32 4 c18 2 38 4 43 5 6 1 28 -7 50 -17z"/>
<path d="M8095 7527 c-64 -21 -180 -123 -243 -214 -30 -42 -28 -46 13 -26 32
15 41 15 83 3 26 -7 65 -15 87 -17 60 -7 110 35 193 159 l68 103 -85 1 c-48 1
-99 -3 -116 -9z m13 -97 c23 0 22 -2 -15 -49 -52 -68 -78 -80 -147 -67 l-56
10 38 39 c43 45 108 79 137 72 11 -3 30 -5 43 -5z"/>
<path d="M4708 7234 c-9 -3 -30 -29 -47 -58 -21 -38 -38 -56 -58 -61 l-28 -7
37 -13 c20 -8 50 -15 65 -16 68 -5 83 1 133 54 28 28 65 57 83 63 l32 12 -30
12 c-32 13 -159 22 -187 14z"/>
<path d="M7935 7229 c-52 -13 -63 -25 -28 -33 15 -4 52 -32 80 -62 53 -54 67
-60 136 -55 15 1 45 8 65 16 l37 13 -28 7 c-20 5 -37 23 -58 60 -17 31 -39 55
-52 59 -31 8 -105 6 -152 -5z"/>
<path d="M4271 6923 c-45 -22 -76 -88 -60 -130 23 -61 89 -104 128 -83 28 15
27 30 -3 30 -14 0 -28 5 -31 11 -12 19 4 55 30 69 48 26 117 -28 144 -112 13
-38 6 -128 -9 -128 -5 0 -19 18 -31 39 -12 22 -37 48 -56 58 -30 16 -36 16
-61 3 -42 -24 -40 -61 7 -133 22 -34 47 -80 56 -102 22 -50 12 -85 -50 -183
-53 -82 -56 -117 -13 -142 25 -13 31 -13 61 3 19 10 44 36 56 58 12 21 26 39
31 39 4 0 11 -20 15 -45 11 -78 -25 -156 -89 -190 -31 -17 -38 -17 -61 -5 -26
14 -42 50 -30 69 3 6 17 11 31 11 30 0 31 15 3 30 -39 21 -105 -22 -128 -83
-9 -23 -7 -37 8 -71 21 -49 67 -76 126 -76 190 0 297 206 236 453 l-22 87 22
87 c62 248 -46 454 -237 453 -22 0 -54 -8 -73 -17z"/>
<path d="M8372 6927 c-138 -51 -203 -237 -153 -440 l22 -87 -22 -87 c-61 -247
46 -453 236 -453 58 0 101 26 125 75 17 35 19 47 10 71 -24 62 -90 105 -129
84 -28 -15 -27 -30 3 -30 14 0 28 -5 31 -11 12 -19 -4 -55 -30 -69 -48 -26
-117 28 -144 112 -13 38 -6 128 9 128 5 0 19 -18 31 -39 12 -22 37 -48 56 -58
30 -16 36 -16 61 -3 43 25 40 60 -13 142 -62 98 -72 133 -50 183 9 22 34 68
56 102 47 72 49 109 7 133 -25 13 -31 13 -61 -3 -19 -10 -44 -36 -56 -58 -12
-21 -26 -39 -31 -39 -4 0 -11 20 -15 45 -11 78 25 156 89 190 31 17 38 17 61
5 26 -14 42 -50 30 -69 -3 -6 -17 -11 -31 -11 -30 0 -31 -15 -3 -30 39 -21
105 22 129 84 15 40 -18 108 -64 130 -39 19 -107 20 -154 3z"/>
<path d="M4175 6400 c-4 -6 12 -10 39 -10 25 0 46 5 46 10 0 6 -18 10 -39 10
-22 0 -43 -4 -46 -10z"/>
<path d="M8535 6400 c-4 -6 13 -10 45 -10 32 0 49 4 45 10 -3 6 -24 10 -45 10
-21 0 -42 -4 -45 -10z"/>
<path d="M4641 5714 c-30 -8 -57 -16 -58 -18 -2 -2 9 -8 26 -14 21 -8 37 -25
55 -61 22 -43 31 -51 62 -57 42 -8 130 1 171 17 l28 11 -32 12 c-18 6 -55 35
-83 64 -27 28 -58 52 -69 52 -11 0 -25 2 -33 4 -7 3 -38 -2 -67 -10z"/>
<path d="M8067 5722 c-19 -2 -47 -22 -78 -55 -27 -29 -64 -57 -82 -63 l-32
-12 28 -11 c41 -16 129 -25 171 -17 31 6 40 14 62 57 18 37 34 53 57 61 l31
11 -35 12 c-46 16 -88 22 -122 17z"/>
<path d="M4682 5500 c-25 -18 -69 -71 -110 -132 l-68 -103 95 0 c116 1 147 14
238 98 56 52 133 145 133 160 0 3 -18 -2 -40 -10 -38 -15 -45 -15 -94 0 -75
24 -107 21 -154 -13z m190 -63 c-50 -53 -105 -77 -159 -70 l-42 6 37 48 c51
66 77 78 146 65 l56 -10 -38 -39z"/>
<path d="M7830 5523 c0 -15 77 -108 133 -160 91 -84 122 -97 238 -98 l95 0
-68 103 c-74 111 -131 162 -181 162 -17 0 -54 -8 -83 -17 -49 -15 -56 -15 -94
0 -22 8 -40 13 -40 10z m210 -46 c9 -7 32 -33 53 -58 l37 -46 -42 -6 c-55 -7
-101 12 -156 66 l-43 42 53 10 c58 11 75 10 98 -8z"/>
<path d="M5460 4927 c-72 -57 -152 -145 -175 -194 -14 -28 -19 -62 -20 -134
l-1 -96 103 69 c125 83 167 133 160 193 -2 22 -10 61 -17 87 -12 42 -12 51 3
83 9 19 13 35 9 35 -4 0 -32 -19 -62 -43z m32 -137 c-5 -22 -22 -41 -73 -83
l-46 -37 -7 46 c-7 55 9 91 67 152 l42 43 10 -53 c6 -29 9 -60 7 -68z"/>
<path d="M7287 4935 c15 -32 15 -41 3 -83 -7 -26 -15 -65 -17 -87 -7 -60 35
-110 159 -193 l103 -68 0 95 c-1 116 -14 147 -98 238 -53 57 -145 133 -161
133 -3 0 2 -16 11 -35z m134 -137 c14 -28 17 -48 13 -82 l-7 -45 -48 37 c-66
51 -78 77 -65 146 l10 56 39 -38 c21 -20 47 -54 58 -74z"/>
<path d="M5581 4897 c-16 -41 -25 -129 -17 -171 6 -31 14 -40 57 -61 27 -14
52 -34 55 -43 3 -9 8 -24 11 -32 6 -18 30 45 34 87 5 68 -1 83 -53 133 -29 28
-58 65 -64 83 l-12 32 -11 -28z"/>
<path d="M7195 4892 c-3 -15 -31 -51 -61 -79 -54 -53 -60 -67 -55 -136 1 -15
8 -44 15 -65 l13 -36 11 31 c8 23 24 39 60 57 64 33 76 78 51 195 -13 60 -24
71 -34 33z"/>
<path d="M6077 4589 c-142 -34 -228 -140 -214 -266 11 -97 115 -147 185 -88
40 33 57 76 42 104 -15 28 -30 27 -30 -3 0 -14 -5 -28 -11 -31 -19 -12 -55 4
-69 30 -26 48 28 117 112 144 38 13 128 6 128 -9 0 -5 -18 -19 -39 -31 -22
-12 -48 -37 -58 -56 -16 -30 -16 -36 -3 -61 24 -42 61 -40 133 7 34 22 80 47
102 56 50 22 85 12 183 -50 82 -53 117 -56 142 -13 13 25 13 31 -3 61 -10 19
-36 44 -58 56 -21 12 -39 26 -39 31 0 4 20 11 45 15 78 11 156 -25 190 -89 17
-31 17 -38 5 -61 -14 -26 -50 -42 -69 -30 -6 3 -11 17 -11 31 0 30 -15 31 -30
3 -15 -28 2 -71 42 -104 70 -59 174 -9 185 88 23 200 -191 322 -450 258 l-87
-22 -82 20 c-85 22 -176 25 -241 10z"/>
<path d="M6390 4214 c0 -27 4 -43 10 -39 6 3 10 24 10 46 0 21 -4 39 -10 39
-5 0 -10 -21 -10 -46z"/>
<path d="M3776 4243 c-46 -139 -66 -251 -73 -402 l-6 -144 144 6 c87 4 180 14
234 27 100 22 249 70 242 77 -3 2 -49 -5 -103 -15 -139 -28 -296 -44 -384 -40
l-75 3 -3 75 c-4 88 12 245 40 384 10 54 17 100 15 103 -3 2 -17 -31 -31 -74z"/>
<path d="M8990 4313 c0 -5 9 -51 19 -103 27 -135 43 -292 39 -380 l-3 -75 -75
-3 c-88 -4 -245 12 -384 40 -54 10 -100 17 -103 15 -7 -7 142 -55 242 -77 54
-13 147 -23 234 -27 l144 -6 -6 144 c-4 87 -14 180 -27 234 -28 126 -80 280
-80 238z"/>
<path d="M4249 11413 c-114 -263 -199 -564 -230 -816 -16 -135 -6 -412 20
-539 37 -182 124 -407 218 -561 32 -54 248 -327 258 -327 2 0 -32 57 -77 126
-91 142 -191 345 -236 479 -70 206 -122 468 -122 614 0 192 48 483 138 841 32
127 57 230 55 230 -2 0 -13 -21 -24 -47z"/>
<path d="M8586 11211 c87 -344 134 -635 134 -823 0 -143 -50 -397 -121 -609
-45 -136 -144 -338 -237 -483 -45 -69 -79 -126 -78 -126 10 0 228 275 259 327
94 154 181 379 218 561 30 145 36 411 14 577 -19 144 -57 308 -105 460 -35
108 -127 345 -138 357 -4 4 20 -104 54 -241z"/>
<path d="M6365 11398 c-41 -22 -88 -75 -111 -123 -25 -53 -30 -85 -14 -85 6 0
10 10 10 23 1 68 93 177 150 177 57 0 149 -109 150 -177 0 -13 5 -23 10 -23
29 0 -14 107 -63 158 -34 35 -77 62 -99 62 -7 0 -22 -6 -33 -12z"/>
<path d="M6324 11241 c-36 -22 -64 -58 -64 -81 1 -8 10 2 21 22 19 37 41 54
88 69 21 6 22 7 6 8 -11 1 -34 -8 -51 -18z"/>
<path d="M6431 11251 c47 -15 69 -32 88 -69 11 -20 20 -30 21 -21 1 37 -74
100 -117 98 -12 0 -9 -3 8 -8z"/>
<path d="M5700 11209 c0 -6 -13 -24 -30 -39 -86 -80 31 -212 123 -140 48 38
44 133 -7 165 -29 18 -86 27 -86 14z"/>
<path d="M7053 11210 c-41 -9 -58 -23 -73 -60 -42 -101 75 -187 151 -111 41
41 40 92 -1 131 -16 15 -30 33 -30 39 0 12 -1 12 -47 1z"/>
<path d="M5897 11173 c-9 -15 45 -132 80 -172 42 -50 72 -66 141 -79 58 -10
71 2 22 21 -16 6 -30 15 -30 20 0 13 76 0 114 -20 l31 -17 -30 -7 c-28 -6 -27
-7 11 -8 27 -1 44 -6 48 -16 3 -8 12 -15 20 -15 12 0 58 -50 79 -86 5 -8 -23
-11 -96 -11 -63 0 -127 -7 -167 -17 -103 -26 -330 -144 -309 -159 2 -2 36 -26
74 -54 95 -68 148 -98 225 -123 57 -19 77 -21 155 -15 50 4 110 7 135 7 25 0
86 -3 135 -7 78 -6 98 -4 155 15 77 25 130 55 225 123 39 28 72 52 74 54 23
16 -212 135 -314 159 -41 10 -111 17 -167 16 -70 0 -96 3 -91 12 21 36 67 86
79 86 8 0 17 7 20 15 4 10 21 15 48 16 38 1 39 2 11 8 l-30 7 31 17 c38 20
114 33 114 20 0 -5 -13 -14 -30 -20 -49 -19 -36 -31 22 -21 69 13 99 29 141
79 35 40 89 157 80 172 -8 13 -158 8 -207 -7 -27 -8 -66 -27 -88 -41 l-41 -27
7 36 c4 23 3 36 -4 36 -5 0 -10 -10 -10 -22 0 -12 -5 -38 -11 -57 -32 -101
-44 -128 -64 -151 -12 -14 -25 -36 -28 -50 -4 -14 -18 -38 -32 -55 l-25 -30
-25 30 c-14 17 -28 41 -32 55 -3 14 -16 36 -28 50 -20 23 -32 50 -64 151 -6
19 -11 45 -11 57 0 12 -5 22 -10 22 -7 0 -8 -13 -4 -36 l7 -36 -41 27 c-22 14
-61 33 -88 41 -49 15 -199 20 -207 7z m383 -194 c0 -19 -19 -8 -54 31 -20 22
-36 48 -36 58 1 12 14 2 45 -31 25 -27 45 -53 45 -58z m330 86 c0 -16 -67 -95
-81 -95 -19 0 -8 22 32 65 46 50 49 52 49 30z m-447 -35 c24 -12 59 -36 78
-56 l34 -35 -44 16 c-52 18 -101 47 -126 75 -16 18 -16 20 -1 20 9 0 36 -9 59
-20z m532 0 c-25 -28 -74 -57 -126 -75 l-44 -16 34 35 c36 37 103 75 135 76
19 0 19 -1 1 -20z m-277 -331 c-12 -7 -24 -7 -35 0 -15 9 -12 10 17 10 29 0
32 -1 18 -10z m59 -80 c43 -6 82 -14 86 -18 9 -9 -118 -41 -163 -41 -46 0
-172 32 -163 41 6 6 86 21 150 28 6 0 47 -4 90 -10z m-44 -116 l32 -18 -32 -3
c-18 -2 -48 -2 -65 0 l-33 3 30 17 c37 21 30 21 68 1z"/>
<path d="M5320 9567 c0 -24 -12 -111 -26 -193 -42 -241 -22 -330 99 -448 106
-103 186 -136 458 -186 92 -16 186 -37 209 -45 24 -8 45 -14 47 -12 2 2 -32
27 -76 55 -136 86 -167 150 -181 377 -9 147 -15 176 -48 240 -49 96 -132 148
-317 200 -55 15 -112 34 -127 41 -38 19 -38 19 -38 -29z m145 -291 c58 -173
96 -239 189 -331 45 -44 109 -96 144 -115 91 -51 105 -63 56 -46 -231 79 -369
264 -428 575 -10 55 0 33 39 -83z"/>
<path d="M7440 9596 c-14 -8 -70 -26 -125 -41 -185 -52 -268 -104 -317 -200
-34 -65 -40 -94 -48 -240 -14 -226 -45 -291 -181 -377 -44 -28 -78 -53 -76
-55 2 -2 24 4 48 12 24 9 118 29 209 46 270 49 351 82 457 185 121 118 141
207 99 448 -14 82 -26 169 -26 193 0 47 -3 49 -40 29z m-76 -281 c-58 -279
-197 -456 -418 -531 -49 -17 -35 -5 56 46 35 19 99 71 144 115 94 92 132 159
190 334 20 61 38 110 40 109 1 -2 -4 -35 -12 -73z"/>
<path d="M2124 8771 c-136 -22 -273 -55 -419 -102 -109 -34 -345 -126 -357
-137 -4 -4 104 20 241 54 344 87 635 134 823 134 144 0 392 -49 609 -121 133
-44 338 -144 484 -238 69 -44 125 -78 125 -77 0 10 -275 228 -327 259 -154 94
-378 180 -561 218 -145 30 -455 35 -618 10z"/>
<path d="M10135 8774 c-221 -34 -482 -130 -657 -241 -41 -26 -308 -242 -308
-249 0 -1 56 33 125 77 143 92 349 193 480 237 208 70 469 122 613 122 188 0
479 -47 823 -134 137 -34 245 -58 241 -54 -26 26 -381 150 -555 194 -240 61
-552 81 -762 48z"/>
<path d="M3415 7505 c-71 -13 -151 -24 -177 -25 -27 0 -48 -2 -48 -5 0 -4 6
-18 14 -33 7 -15 26 -72 41 -127 52 -185 104 -268 200 -317 64 -33 93 -39 240
-48 227 -14 291 -45 377 -181 28 -44 53 -78 55 -76 2 2 -4 23 -12 47 -8 23
-29 117 -45 209 -50 272 -83 352 -186 458 -118 121 -219 142 -459 98z m155
-162 c219 -63 371 -195 441 -384 22 -61 10 -48 -41 43 -19 35 -71 99 -115 144
-92 93 -158 131 -331 189 -60 20 -111 38 -113 40 -8 9 78 -9 159 -32z"/>
<path d="M9083 7511 c-132 -45 -242 -169 -291 -328 -12 -37 -35 -143 -52 -234
-16 -92 -37 -186 -45 -209 -8 -24 -14 -45 -12 -47 2 -2 27 32 55 76 86 136
150 167 377 181 192 12 246 31 326 117 49 52 71 101 115 255 15 51 33 105 40
120 19 38 19 38 -30 38 -23 0 -108 11 -187 25 -170 29 -226 31 -296 6z m306
-135 c-2 -3 -53 -21 -113 -41 -172 -58 -239 -96 -331 -189 -44 -44 -96 -109
-115 -144 -51 -91 -63 -104 -41 -43 78 211 252 347 522 406 72 15 84 17 78 11z"/>
<path d="M1630 7130 c-15 -16 -33 -30 -39 -30 -13 0 -4 -57 14 -86 8 -11 27
-27 44 -34 102 -42 188 74 112 151 -41 41 -92 40 -131 -1z"/>
<path d="M11039 7131 c-76 -77 10 -193 112 -151 17 7 36 23 44 34 18 29 27 86
14 86 -6 0 -24 14 -39 30 -39 41 -90 42 -131 1z"/>
<path d="M2153 6948 c-43 -68 -100 -197 -118 -268 -11 -41 -18 -103 -18 -167
0 -73 -3 -101 -11 -96 -36 21 -86 67 -86 79 0 8 -7 17 -15 20 -10 4 -15 21
-16 48 -1 38 -2 39 -8 11 l-7 -30 -17 31 c-20 38 -33 114 -20 114 5 0 15 -15
22 -32 l14 -33 4 27 c13 86 -62 184 -178 230 -35 14 -67 24 -71 21 -14 -8 -9
-158 6 -207 8 -27 27 -66 41 -88 l27 -41 -36 7 c-23 4 -36 3 -36 -4 0 -5 10
-10 22 -10 12 0 38 -5 57 -11 101 -32 128 -44 151 -64 14 -12 36 -25 50 -28
14 -4 39 -18 55 -32 l30 -25 -30 -25 c-16 -14 -41 -28 -55 -32 -14 -3 -36 -16
-50 -28 -23 -20 -50 -32 -151 -64 -19 -6 -45 -11 -57 -11 -12 0 -22 -5 -22
-10 0 -7 13 -8 36 -4 l36 7 -27 -41 c-14 -22 -33 -61 -41 -88 -15 -49 -20
-199 -6 -207 4 -3 36 7 71 21 116 46 191 144 178 230 l-4 27 -14 -32 c-7 -18
-17 -33 -22 -33 -13 0 0 76 20 114 l17 31 7 -30 c6 -28 7 -27 8 11 1 27 6 44
16 48 8 3 15 12 15 20 0 12 50 58 86 79 8 5 11 -23 11 -96 0 -63 7 -127 17
-167 26 -103 144 -330 159 -309 2 2 26 36 54 74 68 95 98 148 123 225 19 57
21 77 15 155 -4 50 -7 110 -7 135 0 25 3 86 7 135 11 131 -19 212 -139 382
-28 40 -54 72 -58 72 -4 1 -20 -18 -35 -41z m-337 -315 c14 -23 29 -56 34 -74
l10 -33 -35 34 c-35 34 -75 107 -75 136 0 15 2 15 21 -2 12 -10 32 -38 45 -61z
m-26 -59 c22 -20 40 -40 40 -45 0 -15 -52 16 -84 50 -43 45 -7 41 44 -5z m446
-141 c7 -56 -22 -211 -37 -196 -16 17 -27 163 -18 240 6 42 13 81 16 86 8 13
31 -63 39 -130z m82 -65 l-3 -33 -18 33 c-17 31 -17 33 0 65 l18 32 3 -32 c2
-18 2 -48 0 -65z m-217 15 c-9 -15 -10 -12 -10 17 0 29 1 32 10 18 7 -12 7
-24 0 -35z m-308 -154 c-56 -51 -92 -54 -42 -3 33 35 69 56 79 47 3 -2 -14
-22 -37 -44z m57 10 c-19 -65 -100 -176 -100 -137 0 30 31 89 66 128 20 22 38
40 39 40 2 0 0 -14 -5 -31z"/>
<path d="M10554 6917 c-71 -100 -99 -152 -124 -227 -19 -57 -21 -77 -15 -155
4 -49 7 -110 7 -135 0 -25 -3 -85 -7 -135 -6 -78 -4 -98 15 -155 25 -77 55
-130 123 -225 28 -38 52 -72 54 -74 15 -21 133 206 159 309 10 40 17 104 17
167 0 73 3 101 11 96 36 -21 86 -67 86 -79 0 -8 7 -17 15 -20 10 -4 15 -21 16
-48 1 -38 2 -39 8 -11 l7 30 17 -31 c20 -38 33 -114 20 -114 -5 0 -15 15 -22
33 l-14 32 -4 -27 c-13 -86 62 -184 178 -230 35 -14 67 -24 72 -21 13 8 8 158
-7 207 -8 27 -27 66 -41 88 l-27 41 36 -7 c23 -4 36 -3 36 4 0 5 -10 10 -22
10 -12 0 -38 5 -57 11 -101 32 -128 44 -151 64 -14 12 -36 25 -50 28 -14 4
-38 18 -55 32 l-30 25 30 25 c17 14 41 28 55 32 14 3 36 16 50 28 23 20 50 32
151 64 19 6 45 11 57 11 12 0 22 5 22 10 0 7 -13 8 -36 4 l-36 -7 27 41 c14
22 33 61 41 88 15 49 20 199 7 207 -15 9 -132 -45 -172 -80 -50 -42 -66 -72
-79 -141 -10 -58 2 -71 21 -22 6 17 15 30 20 30 13 0 0 -76 -20 -114 l-17 -31
-7 30 c-6 28 -7 27 -8 -11 -1 -27 -6 -44 -16 -48 -8 -3 -15 -12 -15 -20 0 -12
-50 -58 -86 -79 -8 -5 -11 23 -11 96 0 120 -18 197 -72 312 -42 89 -87 165
-99 164 -4 0 -30 -32 -58 -72z m476 -279 c-11 -25 -36 -60 -55 -78 l-35 -34 9
30 c12 43 36 87 68 125 36 42 43 19 13 -43z m24 -59 c-32 -34 -84 -65 -84 -50
0 15 79 81 97 81 13 0 10 -7 -13 -31z m-436 -101 c10 -78 -1 -224 -17 -241 -9
-9 -41 117 -41 163 0 46 32 172 41 163 4 -4 12 -43 17 -85z m-113 -48 c14 -27
14 -33 0 -60 -9 -16 -18 -30 -20 -30 -3 0 -5 27 -5 60 0 33 2 60 5 60 2 0 11
-13 20 -30z m205 -32 c-1 -26 -3 -30 -10 -16 -6 9 -7 23 -4 32 9 25 14 19 14
-16z m336 -169 c28 -28 33 -39 21 -39 -17 0 -97 66 -97 80 0 18 40 -4 76 -41z
m-16 -66 c11 -23 20 -50 20 -59 0 -42 -81 69 -100 137 l-10 33 35 -34 c19 -18
43 -53 55 -77z"/>
<path d="M1525 6546 c-54 -25 -121 -91 -131 -130 -8 -31 15 -74 64 -118 41
-37 121 -74 144 -65 10 4 10 6 -2 10 -90 30 -113 43 -149 82 -53 58 -54 90 -4
146 39 43 99 79 132 79 11 0 23 5 26 10 11 17 -28 11 -80 -14z"/>
<path d="M11196 6562 c5 -5 29 -14 54 -21 30 -9 61 -29 93 -61 62 -62 63 -93
6 -155 -36 -39 -59 -52 -149 -82 -12 -4 -12 -6 -2 -10 23 -9 103 28 144 65 49
44 72 87 64 118 -10 39 -77 105 -131 130 -48 23 -99 33 -79 16z"/>
<path d="M1592 6515 c-32 -27 -57 -76 -49 -97 3 -8 6 -6 6 5 2 35 32 77 69 96
20 11 29 20 20 21 -9 0 -30 -11 -46 -25z"/>
<path d="M11182 6519 c37 -19 67 -61 69 -96 0 -11 3 -13 6 -5 13 34 -56 123
-95 122 -9 -1 0 -10 20 -21z"/>
<path d="M1541 6377 c-2 -43 61 -118 98 -117 9 1 -1 10 -21 21 -37 19 -54 41
-69 88 -5 17 -8 20 -8 8z"/>
<path d="M11251 6377 c-2 -35 -32 -77 -69 -96 -20 -11 -29 -20 -20 -21 39 -1
108 88 95 122 -3 8 -6 6 -6 -5z"/>
<path d="M4062 6031 c-86 -136 -150 -167 -377 -181 -147 -9 -176 -15 -240 -48
-96 -49 -148 -132 -200 -317 -15 -55 -34 -112 -41 -127 -19 -38 -19 -38 29
-38 24 0 111 -12 193 -26 241 -42 330 -22 448 99 103 106 136 186 186 458 16
92 37 186 45 209 8 24 14 45 12 47 -2 2 -27 -32 -55 -76z m-52 -192 c-81 -214
-255 -347 -525 -403 -38 -8 -71 -13 -73 -12 -1 2 48 20 109 40 61 20 142 52
179 71 112 56 235 185 299 313 29 57 35 53 11 -9z"/>
<path d="M8680 6108 c0 -3 7 -25 15 -48 8 -24 29 -120 46 -214 50 -271 92
-371 199 -469 116 -106 203 -123 434 -83 82 14 169 26 193 26 48 0 48 0 29 38
-7 15 -25 69 -40 120 -44 154 -66 203 -115 255 -80 86 -134 105 -326 117 -223
14 -290 45 -372 173 -47 74 -63 95 -63 85z m150 -310 c19 -35 71 -100 115
-144 92 -94 160 -132 334 -190 61 -20 110 -38 109 -40 -2 -1 -35 4 -73 12
-272 56 -447 192 -526 405 -22 61 -10 48 41 -43z"/>
<path d="M1633 5811 c-17 -11 -33 -28 -36 -38 -15 -55 -17 -73 -6 -73 6 0 24
-13 39 -30 81 -87 215 35 137 125 -30 36 -91 43 -134 16z"/>
<path d="M11064 5820 c-59 -24 -72 -104 -25 -151 41 -41 92 -40 131 1 15 17
33 30 39 30 11 0 5 52 -11 82 -19 38 -87 57 -134 38z"/>
<path d="M3520 4449 c-383 -255 -898 -400 -1275 -360 -192 21 -401 61 -657
125 -136 34 -244 58 -240 54 12 -11 248 -103 356 -137 159 -51 281 -80 436
-102 181 -27 446 -22 602 10 183 37 407 124 561 218 70 42 355 272 325 262 -2
0 -50 -32 -108 -70z"/>
<path d="M9170 4516 c0 -10 275 -228 327 -259 154 -94 378 -181 561 -218 65
-14 156 -22 277 -26 258 -8 470 25 761 118 108 34 344 126 356 137 4 4 -104
-20 -240 -54 -509 -128 -802 -157 -1064 -108 -323 60 -589 164 -852 332 -69
45 -126 79 -126 78z"/>
<path d="M6056 4104 c-22 -8 -114 -28 -205 -44 -272 -50 -352 -83 -458 -186
-121 -118 -141 -207 -99 -448 14 -82 26 -169 26 -193 0 -48 0 -48 38 -29 15 7
70 25 122 40 145 41 201 66 253 115 86 80 105 134 117 326 14 223 45 290 173
372 106 67 112 76 33 47z m-178 -87 c-10 -7 -46 -28 -80 -47 -35 -19 -99 -71
-144 -115 -94 -92 -132 -159 -190 -334 -20 -61 -38 -110 -40 -109 -1 2 4 35
12 73 57 277 191 449 413 530 45 17 50 17 29 2z"/>
<path d="M6696 4111 c5 -4 41 -29 81 -54 128 -82 159 -149 173 -372 11 -191
31 -246 117 -326 52 -49 108 -74 253 -115 52 -15 107 -33 122 -40 38 -19 38
-19 38 29 0 24 12 111 26 193 42 241 22 330 -99 448 -106 103 -187 136 -457
185 -91 17 -185 37 -209 46 -50 17 -59 19 -45 6z m335 -131 c138 -70 248 -207
302 -375 18 -54 47 -188 43 -193 -2 -1 -20 48 -40 109 -58 175 -96 242 -190
334 -45 44 -109 96 -144 115 -91 51 -105 63 -56 46 23 -8 61 -24 85 -36z"/>
<path d="M4403 3498 c-157 -192 -234 -329 -308 -551 -57 -171 -76 -279 -82
-482 -8 -258 25 -470 118 -761 34 -108 126 -344 137 -356 4 -4 -20 104 -54
241 -87 344 -134 635 -134 823 0 144 52 407 122 613 44 133 145 336 236 479
45 69 79 126 77 126 -2 0 -52 -60 -112 -132z"/>
<path d="M8362 3504 c93 -145 192 -347 237 -483 71 -215 121 -465 121 -609 0
-188 -47 -479 -134 -823 -34 -137 -58 -245 -54 -241 11 12 103 249 138 357 48
152 86 316 105 460 22 166 16 432 -14 577 -37 183 -124 407 -218 561 -32 54
-248 327 -258 327 -2 0 32 -57 77 -126z"/>
<path d="M6098 2367 c-76 -28 -114 -49 -213 -121 -38 -27 -72 -51 -74 -53 -21
-15 206 -133 309 -159 40 -10 104 -17 167 -17 73 0 101 -3 96 -11 -21 -36 -67
-86 -79 -86 -8 0 -17 -7 -20 -15 -4 -10 -21 -15 -48 -16 -38 -1 -39 -2 -11 -8
l30 -7 -31 -17 c-38 -20 -114 -33 -114 -20 0 5 14 14 30 20 49 19 36 31 -22
21 -69 -13 -99 -29 -141 -79 -35 -40 -89 -157 -80 -171 8 -14 158 -9 207 6 27
8 66 27 88 41 l41 27 -7 -36 c-4 -23 -3 -36 4 -36 5 0 10 10 10 22 0 12 5 38
11 57 32 101 44 128 64 151 12 14 25 36 28 50 4 14 18 39 32 55 l25 30 25 -30
c14 -16 28 -41 32 -55 3 -14 16 -36 28 -50 20 -23 32 -50 64 -151 6 -19 11
-45 11 -57 0 -12 5 -22 10 -22 7 0 8 13 4 36 l-7 36 41 -27 c22 -14 61 -33 88
-41 49 -15 199 -20 207 -6 9 14 -45 131 -80 171 -42 50 -72 66 -141 79 -58 10
-71 -2 -22 -21 17 -6 30 -15 30 -20 0 -13 -76 0 -114 20 l-31 17 30 7 c28 6
27 7 -11 8 -27 1 -44 6 -48 16 -3 8 -12 15 -20 15 -12 0 -58 50 -79 86 -5 9
21 12 91 12 56 -1 126 6 167 16 102 24 337 143 314 159 -2 2 -35 26 -74 54
-95 68 -148 98 -225 123 -57 19 -77 21 -155 15 -110 -9 -153 -9 -275 -1 -85 6
-102 4 -162 -17z m362 -52 c0 -2 -13 -11 -30 -20 -27 -14 -33 -14 -60 0 -16 9
-30 18 -30 20 0 3 27 5 60 5 33 0 60 -2 60 -5z m41 -92 c38 -9 66 -20 62 -24
-4 -4 -43 -12 -85 -18 -78 -11 -222 0 -241 18 -10 10 105 39 157 40 21 1 69
-7 107 -16z m-81 -123 c11 -7 6 -10 -20 -10 -26 0 -31 3 -20 10 8 5 17 10 20
10 3 0 12 -5 20 -10z m-180 -275 c-34 -35 -106 -75 -136 -75 -50 0 107 104
165 110 3 0 -10 -16 -29 -35z m405 -15 c17 -11 40 -28 50 -40 16 -18 16 -20 1
-20 -30 0 -102 40 -137 76 l-34 35 44 -16 c24 -8 58 -24 76 -35z m-379 -7 c-8
-16 -28 -41 -45 -57 -45 -43 -41 -7 5 44 42 46 61 52 40 13z m308 -13 c20 -22
36 -48 36 -58 -1 -12 -14 -2 -45 31 -25 27 -45 53 -45 58 0 19 19 8 54 -31z"/>
<path d="M5669 1761 c-41 -41 -40 -92 1 -131 17 -15 30 -33 30 -39 0 -13 57
-4 86 14 11 8 27 27 34 44 42 102 -74 188 -151 112z"/>
<path d="M7007 1770 c-48 -38 -44 -133 7 -165 29 -18 86 -27 86 -14 0 6 14 24
30 39 86 80 -31 212 -123 140z"/>
<path d="M6260 1638 c-1 -39 88 -108 122 -95 8 3 6 6 -5 6 -35 2 -77 32 -96
69 -11 20 -20 29 -21 20z"/>
<path d="M6521 1622 c-16 -38 -30 -50 -78 -68 -23 -8 -30 -13 -18 -14 44 0
123 71 113 101 -2 7 -10 -2 -17 -19z"/>
<path d="M6230 1593 c1 -55 74 -159 134 -190 37 -19 67 -11 118 35 56 51 111
172 78 172 -5 0 -10 -10 -10 -22 -1 -69 -93 -178 -150 -178 -57 0 -149 109
-150 178 0 12 -4 22 -10 22 -5 0 -10 -8 -10 -17z"/>
</g>
</svg>
